<?xml version="1.0" encoding="UTF-8"?>
<svg version="1.1" xmlns="http://www.w3.org/2000/svg" width="128" height="128">
<path d="M0 0 C0.85715607 0.00565979 1.71431213 0.01131958 2.59744263 0.01715088 C5.3181493 0.03942861 8.03750818 0.08960726 10.7578125 0.140625 C12.60935589 0.1607012 14.46092006 0.17895 16.3125 0.1953125 C20.8364518 0.23926499 25.35940414 0.30823141 29.8828125 0.390625 C29.8828125 1.710625 29.8828125 3.030625 29.8828125 4.390625 C28.33956299 4.41249878 28.33956299 4.41249878 26.76513672 4.43481445 C22.92934303 4.49301157 19.09412328 4.57024203 15.25878906 4.65307617 C13.60230866 4.68622518 11.94571804 4.71428809 10.2890625 4.73706055 C7.90056616 4.77079232 5.51307079 4.82311459 3.125 4.87890625 C2.39038544 4.88529617 1.65577087 4.8916861 0.89889526 4.89826965 C-3.81978116 5.03164937 -7.09793933 5.9155905 -11.1171875 8.390625 C-13.92325436 11.55876501 -14.1171875 13.11198694 -14.1171875 17.390625 C-13.83960844 20.25894198 -12.93745024 21.66179382 -11.3203125 24.1015625 C-6.4345834 27.59307135 -1.7287824 27.05647235 4.1328125 27.015625 C19.19276741 27.015625 19.19276741 27.015625 25.8828125 30.390625 C29.32551953 33.83333203 30.1480358 36.65951874 30.3828125 41.390625 C30.19216767 46.10025834 28.88898135 48.69733184 25.8828125 52.390625 C23.35842236 56.13046225 22.54439358 58.94858063 21.8828125 63.390625 C21.31264404 64.23802246 21.31264404 64.23802246 20.73095703 65.10253906 C19.42385065 68.62879152 20.75084555 71.51210328 21.875 74.9375 C22.09979034 75.66753235 22.32458069 76.3975647 22.55618286 77.14971924 C23.27624267 79.48459547 24.01510411 81.81286235 24.7578125 84.140625 C25.49221286 86.45439654 26.22191829 88.7691794 26.9380188 91.08868408 C27.38333967 92.53022519 27.83900607 93.96862693 28.30685425 95.40301514 C29.79767809 100.21599108 30.34075235 104.34580173 29.8828125 109.390625 C26.8828125 111.390625 26.8828125 111.390625 23.8203125 112.390625 C20.80225516 113.17684391 20.80225516 113.17684391 18.8828125 115.390625 C19.3984375 115.90625 19.9140625 116.421875 20.4453125 116.953125 C22.48207121 120.40675934 21.79995795 122.58094389 20.8828125 126.390625 C18.8828125 128.390625 18.8828125 128.390625 16.80948448 128.63672066 C15.94852983 128.63487707 15.08757519 128.63303349 14.20053101 128.63113403 C12.71972298 128.63525803 12.71972298 128.63525803 11.20899963 128.63946533 C9.57873085 128.6286795 9.57873085 128.6286795 7.91552734 128.61767578 C6.20333763 128.61811386 6.20333763 128.61811386 4.45655823 128.61856079 C0.66887919 128.61716309 -3.11860517 128.60158109 -6.90625 128.5859375 C-9.52655937 128.58220894 -12.14687013 128.57936123 -14.7671814 128.57736206 C-20.96848444 128.57114001 -27.16971716 128.55471945 -33.3709892 128.53466308 C-40.43014167 128.51232657 -47.48929746 128.50131632 -54.54847646 128.49127221 C-69.07141645 128.47035381 -83.59430099 128.4351638 -98.1171875 128.390625 C-98.3984375 121.7265625 -98.3984375 121.7265625 -95.8671875 118.703125 C-94.9596875 117.94 -94.0521875 117.176875 -93.1171875 116.390625 C-89.76528974 113.30080978 -87.25314185 109.85517079 -84.7421875 106.078125 C-82.21287038 102.29282036 -79.66960607 98.7956993 -76.4296875 95.578125 C-73.8670104 92.76721533 -73.8670104 92.76721533 -74.26953125 90.3359375 C-74.66045773 88.94086654 -75.09157465 87.55628831 -75.56640625 86.1875 C-76.1171875 84.390625 -76.1171875 84.390625 -75.6796875 81.953125 C-73.08669279 79.36013029 -70.68168151 79.45104015 -67.1171875 79.390625 C-64.38671875 80.88671875 -64.38671875 80.88671875 -62.1171875 82.390625 C-61.5809375 81.978125 -61.0446875 81.565625 -60.4921875 81.140625 C-49.62604489 73.1339936 -37.82752073 67.73589377 -25.1171875 63.328125 C-23.80947388 62.86116211 -23.80947388 62.86116211 -22.4753418 62.38476562 C-16.87022599 60.53126612 -12.91505224 60.21628897 -7.1171875 61.390625 C-7.1171875 60.730625 -7.1171875 60.070625 -7.1171875 59.390625 C-2.82467298 58.21993922 1.19502573 57.30638166 5.6328125 56.953125 C9.31160953 56.61296226 11.0065959 55.75323149 13.8828125 53.390625 C16.6328125 53.203125 16.6328125 53.203125 18.8828125 53.390625 C19.2540625 52.58625 19.2540625 52.58625 19.6328125 51.765625 C20.8828125 49.390625 20.8828125 49.390625 23.0703125 46.515625 C25.16120504 43.53297089 25.16120504 43.53297089 24.8203125 40.203125 C23.87640262 37.37139535 23.22574028 36.17125011 20.8828125 34.390625 C18.1841652 33.04130135 16.01067705 33.2286627 12.9921875 33.1796875 C11.80753906 33.15132812 10.62289062 33.12296875 9.40234375 33.09375 C6.90509184 33.04199348 4.40767496 32.99762718 1.91015625 32.9609375 C0.72035156 32.93 -0.46945313 32.8990625 -1.6953125 32.8671875 C-2.78231445 32.84736816 -3.86931641 32.82754883 -4.98925781 32.80712891 C-9.73493662 32.17521133 -13.03953366 30.49821367 -16.3671875 27.078125 C-19.57486433 22.15204987 -20.60768286 18.0977465 -19.65234375 12.34375 C-18.43762341 7.91046409 -16.00783796 5.1334812 -12.54248047 2.24316406 C-8.14214602 -0.13671746 -4.91038819 -0.1233116 0 0 Z M-2.671875 75.078125 C-4.11698715 75.49878775 -5.55693984 75.93744689 -6.9921875 76.390625 C-7.74870605 76.62193115 -8.50522461 76.8532373 -9.28466797 77.09155273 C-16.20482178 79.27989642 -22.64118458 82.1067595 -29.1171875 85.390625 C-29.88289063 85.72835937 -30.64859375 86.06609375 -31.4375 86.4140625 C-33.60025673 87.35985987 -33.60025673 87.35985987 -36.1171875 89.390625 C-37.52533155 92.82870922 -37.52533155 92.82870922 -37.1171875 96.390625 C-35.51169603 98.91373511 -35.51169603 98.91373511 -33.1171875 100.390625 C-32.1271875 100.390625 -31.1371875 100.390625 -30.1171875 100.390625 C-29.7871875 98.080625 -29.4571875 95.770625 -29.1171875 93.390625 C-21.5271875 93.390625 -13.9371875 93.390625 -6.1171875 93.390625 C-5.7871875 95.040625 -5.4571875 96.690625 -5.1171875 98.390625 C-1.1571875 98.390625 2.8028125 98.390625 6.8828125 98.390625 C7.97271613 92.94110683 7.41083004 89.93500932 6.1328125 84.703125 C5.96265625 83.93162109 5.7925 83.16011719 5.6171875 82.36523438 C4.31742059 76.89378909 3.5519883 73.8743888 -2.671875 75.078125 Z " fill="#FBE679" transform="translate(98.1171875,-0.390625)"/>
<path d="M0 0 C0.85715607 0.00565979 1.71431213 0.01131958 2.59744263 0.01715088 C5.3181493 0.03942861 8.03750818 0.08960726 10.7578125 0.140625 C12.60935589 0.1607012 14.46092006 0.17895 16.3125 0.1953125 C20.8364518 0.23926499 25.35940414 0.30823141 29.8828125 0.390625 C29.8828125 1.710625 29.8828125 3.030625 29.8828125 4.390625 C28.33956299 4.41249878 28.33956299 4.41249878 26.76513672 4.43481445 C22.92934303 4.49301157 19.09412328 4.57024203 15.25878906 4.65307617 C13.60230866 4.68622518 11.94571804 4.71428809 10.2890625 4.73706055 C7.90056616 4.77079232 5.51307079 4.82311459 3.125 4.87890625 C2.39038544 4.88529617 1.65577087 4.8916861 0.89889526 4.89826965 C-3.81978116 5.03164937 -7.09793933 5.9155905 -11.1171875 8.390625 C-13.92325436 11.55876501 -14.1171875 13.11198694 -14.1171875 17.390625 C-13.83960844 20.25894198 -12.93745024 21.66179382 -11.3203125 24.1015625 C-6.4345834 27.59307135 -1.7287824 27.05647235 4.1328125 27.015625 C19.19276741 27.015625 19.19276741 27.015625 25.8828125 30.390625 C29.32551953 33.83333203 30.1480358 36.65951874 30.3828125 41.390625 C30.19216767 46.10025834 28.88898135 48.69733184 25.8828125 52.390625 C23.35842236 56.13046225 22.54439358 58.94858063 21.8828125 63.390625 C21.31264404 64.23802246 21.31264404 64.23802246 20.73095703 65.10253906 C19.42385065 68.62879152 20.75084555 71.51210328 21.875 74.9375 C22.09979034 75.66753235 22.32458069 76.3975647 22.55618286 77.14971924 C23.27624267 79.48459547 24.01510411 81.81286235 24.7578125 84.140625 C25.49221286 86.45439654 26.22191829 88.7691794 26.9380188 91.08868408 C27.38333967 92.53022519 27.83900607 93.96862693 28.30685425 95.40301514 C29.79767809 100.21599108 30.34075235 104.34580173 29.8828125 109.390625 C26.8828125 111.390625 26.8828125 111.390625 23.8203125 112.390625 C20.80225516 113.17684391 20.80225516 113.17684391 18.8828125 115.390625 C19.3984375 115.90625 19.9140625 116.421875 20.4453125 116.953125 C22.48207121 120.40675934 21.79995795 122.58094389 20.8828125 126.390625 C18.8828125 128.390625 18.8828125 128.390625 16.80948448 128.63672066 C15.94852983 128.63487707 15.08757519 128.63303349 14.20053101 128.63113403 C12.71972298 128.63525803 12.71972298 128.63525803 11.20899963 128.63946533 C9.57873085 128.6286795 9.57873085 128.6286795 7.91552734 128.61767578 C6.20333763 128.61811386 6.20333763 128.61811386 4.45655823 128.61856079 C0.66887919 128.61716309 -3.11860517 128.60158109 -6.90625 128.5859375 C-9.52655937 128.58220894 -12.14687013 128.57936123 -14.7671814 128.57736206 C-20.96848444 128.57114001 -27.16971716 128.55471945 -33.3709892 128.53466308 C-40.43014167 128.51232657 -47.48929746 128.50131632 -54.54847646 128.49127221 C-69.07141645 128.47035381 -83.59430099 128.4351638 -98.1171875 128.390625 C-98.3984375 121.7265625 -98.3984375 121.7265625 -95.8671875 118.703125 C-94.9596875 117.94 -94.0521875 117.176875 -93.1171875 116.390625 C-89.76528974 113.30080978 -87.25314185 109.85517079 -84.7421875 106.078125 C-82.21287038 102.29282036 -79.66960607 98.7956993 -76.4296875 95.578125 C-73.8670104 92.76721533 -73.8670104 92.76721533 -74.26953125 90.3359375 C-74.66045773 88.94086654 -75.09157465 87.55628831 -75.56640625 86.1875 C-76.1171875 84.390625 -76.1171875 84.390625 -75.6796875 81.953125 C-73.08669279 79.36013029 -70.68168151 79.45104015 -67.1171875 79.390625 C-64.38671875 80.88671875 -64.38671875 80.88671875 -62.1171875 82.390625 C-61.5809375 81.978125 -61.0446875 81.565625 -60.4921875 81.140625 C-49.56120374 73.08621591 -37.73455863 67.70403798 -24.9296875 63.328125 C-23.5842688 62.86116211 -23.5842688 62.86116211 -22.21166992 62.38476562 C-20.93706909 61.96807617 -20.93706909 61.96807617 -19.63671875 61.54296875 C-18.88495361 61.29538818 -18.13318848 61.04780762 -17.35864258 60.79272461 C-14.69254132 60.31444678 -12.72114462 60.71892275 -10.1171875 61.390625 C-10.703125 63.27734375 -10.703125 63.27734375 -12.1171875 65.390625 C-15.03125 66.41015625 -15.03125 66.41015625 -18.7421875 67.203125 C-44.60306845 73.32186789 -68.44263526 89.3048792 -82.47680664 111.97119141 C-83.36720936 113.43814787 -84.24382664 114.91345911 -85.1171875 116.390625 C-81.1571875 116.390625 -77.1971875 116.390625 -73.1171875 116.390625 C-73.1171875 117.380625 -73.1171875 118.370625 -73.1171875 119.390625 C-74.30957031 119.42800781 -75.50195312 119.46539062 -76.73046875 119.50390625 C-78.2969065 119.56956532 -79.86331134 119.63601268 -81.4296875 119.703125 C-82.21537109 119.72568359 -83.00105469 119.74824219 -83.81054688 119.77148438 C-84.56787109 119.80693359 -85.32519531 119.84238281 -86.10546875 119.87890625 C-87.15021362 119.91818237 -87.15021362 119.91818237 -88.21606445 119.95825195 C-90.57691618 120.31766724 -90.57691618 120.31766724 -93.1171875 123.390625 C-56.8171875 123.390625 -20.5171875 123.390625 16.8828125 123.390625 C16.5528125 122.400625 16.2228125 121.410625 15.8828125 120.390625 C-11.8371875 120.060625 -39.5571875 119.730625 -68.1171875 119.390625 C-68.1171875 118.400625 -68.1171875 117.410625 -68.1171875 116.390625 C-41.0571875 116.390625 -13.9971875 116.390625 13.8828125 116.390625 C14.3778125 114.410625 14.3778125 114.410625 14.8828125 112.390625 C17.0703125 109.640625 17.0703125 109.640625 19.8828125 107.390625 C23.05859375 107.25 23.05859375 107.25 25.8828125 107.390625 C22.57540791 95.34559447 19.25936423 83.30629009 15.5078125 71.390625 C15.25757324 70.59100342 15.00733398 69.79138184 14.74951172 68.9675293 C13.82976002 65.3977823 13.82976002 65.3977823 11.8828125 62.390625 C10.03176179 62.34574588 10.03176179 62.34574588 7.84765625 62.51171875 C7.03876953 62.56005859 6.22988281 62.60839844 5.39648438 62.65820312 C4.1212793 62.74231445 4.1212793 62.74231445 2.8203125 62.828125 C1.53930664 62.90643555 1.53930664 62.90643555 0.23242188 62.98632812 C-1.88440745 63.11641261 -4.00083994 63.25292471 -6.1171875 63.390625 C-6.6121875 61.410625 -6.6121875 61.410625 -7.1171875 59.390625 C-2.82467298 58.21993922 1.19502573 57.30638166 5.6328125 56.953125 C9.31160953 56.61296226 11.0065959 55.75323149 13.8828125 53.390625 C16.6328125 53.203125 16.6328125 53.203125 18.8828125 53.390625 C19.2540625 52.58625 19.2540625 52.58625 19.6328125 51.765625 C20.8828125 49.390625 20.8828125 49.390625 23.0703125 46.515625 C25.16120504 43.53297089 25.16120504 43.53297089 24.8203125 40.203125 C23.87640262 37.37139535 23.22574028 36.17125011 20.8828125 34.390625 C18.1841652 33.04130135 16.01067705 33.2286627 12.9921875 33.1796875 C11.80753906 33.15132812 10.62289062 33.12296875 9.40234375 33.09375 C6.90509184 33.04199348 4.40767496 32.99762718 1.91015625 32.9609375 C0.72035156 32.93 -0.46945313 32.8990625 -1.6953125 32.8671875 C-2.78231445 32.84736816 -3.86931641 32.82754883 -4.98925781 32.80712891 C-9.73493662 32.17521133 -13.03953366 30.49821367 -16.3671875 27.078125 C-19.57486433 22.15204987 -20.60768286 18.0977465 -19.65234375 12.34375 C-18.43762341 7.91046409 -16.00783796 5.1334812 -12.54248047 2.24316406 C-8.14214602 -0.13671746 -4.91038819 -0.1233116 0 0 Z " fill="#050504" transform="translate(98.1171875,-0.390625)"/>
<path d="M0 0 C4.25423523 2.89317746 5.16808261 6.895118 6.25 11.6875 C6.41693359 12.39994873 6.58386719 13.11239746 6.75585938 13.84643555 C7.90949421 19.01954603 8.71884905 23.69848825 8 29 C4.94147765 32.10989579 2.26683583 32.45631138 -1.98828125 32.73046875 C-3.16318115 32.81151855 -4.33808105 32.89256836 -5.54858398 32.97607422 C-6.79067627 33.04584473 -8.03276855 33.11561523 -9.3125 33.1875 C-11.20560913 33.30375732 -11.20560913 33.30375732 -13.13696289 33.42236328 C-16.75725415 33.63443055 -20.37788297 33.82219843 -24 34 C-24.89106445 34.04817871 -25.78212891 34.09635742 -26.70019531 34.14599609 C-37.9467059 34.70998742 -37.9467059 34.70998742 -41.81640625 32.1015625 C-44.7577058 29.270759 -45.18569588 27.65847111 -45.3125 23.6875 C-45.34988281 22.92824219 -45.38726562 22.16898438 -45.42578125 21.38671875 C-44.80375907 17.89997057 -43.52875325 16.48966896 -41 14 C-38.19357937 12.24631077 -35.26104732 10.86577104 -32.25 9.5 C-31.41251221 9.11271729 -30.57502441 8.72543457 -29.7121582 8.32641602 C-8.71235568 -1.15435675 -8.71235568 -1.15435675 0 0 Z M-6.5546875 4.6875 C-7.99979965 5.10816275 -9.43975234 5.54682189 -10.875 6 C-11.63151855 6.23130615 -12.38803711 6.4626123 -13.16748047 6.70092773 C-20.08763428 8.88927142 -26.52399708 11.7161345 -33 15 C-33.76570313 15.33773437 -34.53140625 15.67546875 -35.3203125 16.0234375 C-37.48306923 16.96923487 -37.48306923 16.96923487 -40 19 C-41.40814405 22.43808422 -41.40814405 22.43808422 -41 26 C-39.39450853 28.52311011 -39.39450853 28.52311011 -37 30 C-36.01 30 -35.02 30 -34 30 C-33.67 27.69 -33.34 25.38 -33 23 C-25.41 23 -17.82 23 -10 23 C-9.67 24.65 -9.34 26.3 -9 28 C-5.04 28 -1.08 28 3 28 C4.08990363 22.55048183 3.52801754 19.54438432 2.25 14.3125 C2.07984375 13.54099609 1.9096875 12.76949219 1.734375 11.97460938 C0.43460809 6.50316409 -0.3308242 3.4837638 -6.5546875 4.6875 Z " fill="#070703" transform="translate(102,70)"/>
<path d="M0 0 C2.475 0.495 2.475 0.495 5 1 C5 1.66 5 2.32 5 3 C32.72 3 60.44 3 89 3 C89.99 4.98 89.99 4.98 91 7 C90 8 90 8 88.14342403 8.12304783 C87.32579366 8.12212604 86.50816328 8.12120424 85.66575623 8.12025452 C84.73041046 8.12162918 83.7950647 8.12300385 82.83137512 8.12442017 C81.79703842 8.12082489 80.76270172 8.11722961 79.69702148 8.11352539 C78.61422913 8.11367142 77.53143677 8.11381744 76.41583252 8.1139679 C72.81756626 8.11326823 69.21935103 8.10547333 65.62109375 8.09765625 C63.13387582 8.09579226 60.64665752 8.09436827 58.15943909 8.09336853 C52.26978809 8.0899335 46.3801561 8.08204277 40.49051291 8.07201904 C33.12974626 8.05976246 25.76897736 8.05437791 18.40820312 8.04882812 C5.27212602 8.03808815 -7.86393583 8.02120089 -21 8 C-17.25183105 3.07095337 -17.25183105 3.07095337 -14.98535156 2.43237305 C-13.94846191 2.47164917 -13.94846191 2.47164917 -12.890625 2.51171875 C-11.75947266 2.53588867 -11.75947266 2.53588867 -10.60546875 2.56054688 C-9.43951172 2.62338867 -9.43951172 2.62338867 -8.25 2.6875 C-7.06083984 2.72133789 -7.06083984 2.72133789 -5.84765625 2.75585938 C-3.8976238 2.81459529 -1.94856688 2.90427346 0 3 C0 2.01 0 1.02 0 0 Z " fill="#A9A1A8" transform="translate(25,116)"/>
<path d="M0 0 C3.3125 -0.25 3.3125 -0.25 7 0 C9.85866195 2.92024114 10.82564507 6.07111841 11.9375 9.9453125 C12.44410156 11.68554688 12.44410156 11.68554688 12.9609375 13.4609375 C13.30382812 14.67007813 13.64671875 15.87921875 14 17.125 C14.68744253 19.50262078 15.37494164 21.88022521 16.0625 24.2578125 C16.38863281 25.40282227 16.71476562 26.54783203 17.05078125 27.72753906 C18.12886824 31.44427724 19.28716568 35.1320259 20.484375 38.81201172 C21.06327399 41.26849501 21.08842289 43.48492141 21 46 C19.906875 46.309375 18.81375 46.61875 17.6875 46.9375 C15.44592006 47.58337897 13.2130649 48.2623117 11 49 C9.77479736 52.00847418 9.77479736 52.00847418 9 55 C-1.98840181 55.15456109 -12.97687004 55.30273109 -23.96546459 55.4429636 C-29.06906508 55.50829003 -34.17261842 55.57573626 -39.27612305 55.64819336 C-44.21033891 55.71816621 -49.14460054 55.78235347 -54.07894325 55.84269524 C-55.95220945 55.86658825 -57.82545122 55.89249157 -59.6986599 55.92053413 C-69.86750337 56.0713829 -79.87137567 56.05660886 -90 55 C-89.34 53.68 -88.68 52.36 -88 51 C-88 51.66 -88 52.32 -88 53 C-76.61235423 52.98513095 -65.2251489 52.94356344 -53.83773518 52.86790943 C-48.55005026 52.83361885 -43.26265489 52.80852621 -37.97485352 52.80444336 C-32.87175086 52.80016489 -27.76930163 52.77173938 -22.66640282 52.72656822 C-20.71960442 52.71357882 -18.77272789 52.70929063 -16.82589149 52.71384621 C-14.09846065 52.71874196 -11.37294711 52.69270628 -8.64575195 52.65942383 C-7.84086334 52.66804947 -7.03597473 52.67667511 -6.20669556 52.68556213 C-2.10202128 52.60159516 -0.2565602 52.21151862 2.954422 49.56425476 C3.62946274 48.71805069 4.30450348 47.87184662 5 47 C7.76690008 43.60425899 10.80638297 43.02862305 15 42 C13.40403362 34.30332345 11.37022461 26.74414444 9.22363281 19.1862793 C8.82153098 17.75973612 8.42611314 16.33129346 8.03710938 14.90112305 C7.46955817 12.81622653 6.8817243 10.73803425 6.2890625 8.66015625 C5.94568848 7.42918213 5.60231445 6.19820801 5.24853516 4.92993164 C4.27500968 1.89879928 4.27500968 1.89879928 1.85693359 0.58374023 C1.24414551 0.39110596 0.63135742 0.19847168 0 0 Z " fill="#F2D52F" transform="translate(103,61)"/>
<path d="M0 0 C0.66 0.66 1.32 1.32 2 2 C1.351521 2.20044922 0.70304199 2.40089844 0.03491211 2.60742188 C-21.73766042 8.14518709 -21.73766042 8.14518709 -39 21 C-39.24187651 23.74518321 -39.24187651 23.74518321 -39.125 26.6875 C-39.10695313 27.68136719 -39.08890625 28.67523438 -39.0703125 29.69921875 C-39.04710937 30.45847656 -39.02390625 31.21773437 -39 32 C-42.70861858 29.3649289 -44.9520814 27.50604998 -46 23 C-46.125 19.5 -46.125 19.5 -45 16 C-39.75326117 11.53405141 -32.83969886 8.96910831 -26.5625 6.3125 C-25.67240234 5.92255859 -24.78230469 5.53261719 -23.86523438 5.13085938 C-16.13715339 1.8285019 -8.50820948 -0.69454771 0 0 Z " fill="#F6D931" transform="translate(97,68)"/>
<path d="M0 0 C0.33 0.66 0.66 1.32 1 2 C2.0824852 1.99777939 3.1649704 1.99555878 4.28025818 1.99327087 C14.50517366 1.97295764 24.73008502 1.95798851 34.95501614 1.94818783 C40.2111489 1.94297976 45.46726532 1.93591994 50.72338867 1.92456055 C55.80029014 1.91365774 60.87717593 1.90770753 65.95408821 1.90512276 C67.88645741 1.9032818 69.8188258 1.89968696 71.75118828 1.89426994 C74.46752623 1.88696129 77.18380021 1.88601318 79.90014648 1.88647461 C80.69065399 1.88287933 81.4811615 1.87928406 82.29562378 1.87557983 C87.59942119 1.88526471 92.73646576 2.34005354 98 3 C98 3.33 98 3.66 98 4 C87.01159819 4.15456109 76.02312996 4.30273109 65.03453541 4.4429636 C59.93093492 4.50829003 54.82738158 4.57573626 49.72387695 4.64819336 C44.78966109 4.71816621 39.85539946 4.78235347 34.92105675 4.84269524 C33.04779055 4.86658825 31.17454878 4.89249157 29.3013401 4.92053413 C19.13249663 5.0713829 9.12862433 5.05660886 -1 4 C-0.67 2.68 -0.34 1.36 0 0 Z " fill="#C3AC25" transform="translate(14,112)"/>
<path d="M0 0 C5.61 0 11.22 0 17 0 C17 0.99 17 1.98 17 3 C13.93466836 4.53266582 10.73245728 4.10276471 7.375 4.0625 C6.66859375 4.05798828 5.9621875 4.05347656 5.234375 4.04882812 C3.48954725 4.03703875 1.744763 4.01910324 0 4 C0 2.68 0 1.36 0 0 Z " fill="#A8A1A9" transform="translate(72,96)"/>
<path d="M0 0 C0.33 0.66 0.66 1.32 1 2 C4.3 2 7.6 2 11 2 C11 2.66 11 3.32 11 4 C7.04 4 3.08 4 -1 4 C-0.67 2.68 -0.34 1.36 0 0 Z " fill="#C3AC28" transform="translate(14,112)"/>
<path d="M0 0 C1.65 0 3.3 0 5 0 C5 1.32 5 2.64 5 4 C3.35 4 1.7 4 0 4 C0 2.68 0 1.36 0 0 Z " fill="#9F949F" transform="translate(110,120)"/>
<path d="M0 0 C1.32 0.33 2.64 0.66 4 1 C4 2.32 4 3.64 4 5 C2.68 4.67 1.36 4.34 0 4 C0 2.68 0 1.36 0 0 Z " fill="#918B92" transform="translate(27,83)"/>
</svg>
