<?xml version="1.0" encoding="UTF-8"?>
<svg version="1.1" xmlns="http://www.w3.org/2000/svg" width="128" height="128">
<path d="M0 0 C0.73381897 -0.01568527 1.46763794 -0.03137054 2.22369385 -0.04753113 C3.77692564 -0.07215141 5.33036582 -0.08573712 6.88378906 -0.08911133 C9.2464309 -0.10533693 11.60005025 -0.19067721 13.9609375 -0.27929688 C24.98162904 -0.47850398 24.98162904 -0.47850398 29.04882812 2.66479492 C30.79891078 4.9349797 32.14347251 7.19765374 33.515625 9.70703125 C38.89538899 15.6475582 45.01418352 16.64937463 52.703125 17.14453125 C53.70730469 17.18449219 54.71148437 17.22445313 55.74609375 17.265625 C58.96533135 17.77870518 60.28582877 18.33257263 62.515625 20.70703125 C63.5625 23.6328125 63.5625 23.6328125 64.265625 27.01953125 C64.50796875 28.12941406 64.7503125 29.23929688 65 30.3828125 C65.96118498 36.57954293 65.96118498 36.57954293 65.515625 39.70703125 C63.25 41.9453125 63.25 41.9453125 60.265625 44.01953125 C55.03725132 48.07034329 51.83954078 51.12726938 50.515625 57.70703125 C49.6543465 65.68080319 49.34088673 74.12665494 54.515625 80.70703125 C56.42263777 82.20501145 58.36315065 83.66093373 60.328125 85.08203125 C65.33938106 88.91220566 65.33938106 88.91220566 66.11328125 92.40234375 C65.88083432 95.3303595 65.34023342 97.88961913 64.515625 100.70703125 C64.29390625 101.57457031 64.0721875 102.44210938 63.84375 103.3359375 C62.11925323 109.30461243 62.11925323 109.30461243 58.515625 111.70703125 C55.23272407 112.16258799 51.97490765 112.48953015 48.671875 112.7421875 C42.5796935 113.34911536 38.17209379 115.20424248 33.625 119.48828125 C33.17640625 120.05546875 32.7278125 120.62265625 32.265625 121.20703125 C31.80671875 121.77421875 31.3478125 122.34140625 30.875 122.92578125 C29.45559928 124.68981048 29.45559928 124.68981048 28.3984375 126.77416992 C26.08572904 129.14835469 24.41311463 129.24941888 21.17144775 129.3910675 C20.4651825 129.39865585 19.75891724 129.4062442 19.03125 129.4140625 C18.29743103 129.42974777 17.56361206 129.44543304 16.80755615 129.46159363 C15.25432436 129.48621391 13.70088418 129.49979962 12.14746094 129.50317383 C9.7848191 129.51939943 7.43119975 129.60473971 5.0703125 129.69335938 C-5.95463197 129.89197134 -5.95463197 129.89197134 -10.03735352 126.72949219 C-11.78708107 124.46403865 -13.13648736 122.22480499 -14.484375 119.70703125 C-20.94129914 113.41566927 -28.09554418 112.38233169 -36.75 112.11328125 C-39.96588897 111.63549203 -41.25999695 111.07539806 -43.484375 108.70703125 C-44.53125 105.78125 -44.53125 105.78125 -45.234375 102.39453125 C-45.47671875 101.28464844 -45.7190625 100.17476563 -45.96875 99.03125 C-46.92993498 92.83451957 -46.92993498 92.83451957 -46.484375 89.70703125 C-44.21875 87.46875 -44.21875 87.46875 -41.234375 85.39453125 C-35.99982746 81.33893586 -32.82053535 78.28811953 -31.484375 71.70703125 C-30.54578848 63.8670733 -30.77064135 56.91671606 -34.70703125 49.9453125 C-36.80117661 47.3080701 -39.09562821 45.5234349 -41.796875 43.51953125 C-46.39092534 40.08082988 -46.39092534 40.08082988 -47.296875 36.45703125 C-46.8946875 34.60078125 -46.8946875 34.60078125 -46.484375 32.70703125 C-46.29746094 31.71703125 -46.11054687 30.72703125 -45.91796875 29.70703125 C-44.1897003 21.49034925 -44.1897003 21.49034925 -41.859375 18.90234375 C-38.57694441 17.25033098 -35.33708798 17.09658794 -31.734375 16.83203125 C-23.41179762 15.9972467 -18.16116047 13.98449546 -12.671875 7.64453125 C-10.53437962 4.91681909 -10.53437962 4.91681909 -9.31542969 2.56762695 C-6.58562499 -0.20621859 -3.68773873 0.03962229 0 0 Z " fill="#9D502C" transform="translate(54.484375,-0.70703125)"/>
<path d="M0 0 C0.73381897 -0.01568527 1.46763794 -0.03137054 2.22369385 -0.04753113 C3.77692564 -0.07215141 5.33036582 -0.08573712 6.88378906 -0.08911133 C9.2464309 -0.10533693 11.60005025 -0.19067721 13.9609375 -0.27929688 C24.98162904 -0.47850398 24.98162904 -0.47850398 29.04882812 2.66479492 C30.79891078 4.9349797 32.14347251 7.19765374 33.515625 9.70703125 C38.89538899 15.6475582 45.01418352 16.64937463 52.703125 17.14453125 C53.70730469 17.18449219 54.71148437 17.22445313 55.74609375 17.265625 C58.96533135 17.77870518 60.28582877 18.33257263 62.515625 20.70703125 C63.5625 23.6328125 63.5625 23.6328125 64.265625 27.01953125 C64.50796875 28.12941406 64.7503125 29.23929688 65 30.3828125 C65.96118498 36.57954293 65.96118498 36.57954293 65.515625 39.70703125 C63.25 41.9453125 63.25 41.9453125 60.265625 44.01953125 C55.03725132 48.07034329 51.83954078 51.12726938 50.515625 57.70703125 C49.6543465 65.68080319 49.34088673 74.12665494 54.515625 80.70703125 C56.42263777 82.20501145 58.36315065 83.66093373 60.328125 85.08203125 C65.33938106 88.91220566 65.33938106 88.91220566 66.11328125 92.40234375 C65.88083432 95.3303595 65.34023342 97.88961913 64.515625 100.70703125 C64.29390625 101.57457031 64.0721875 102.44210938 63.84375 103.3359375 C62.11925323 109.30461243 62.11925323 109.30461243 58.515625 111.70703125 C55.23272407 112.16258799 51.97490765 112.48953015 48.671875 112.7421875 C42.5796935 113.34911536 38.17209379 115.20424248 33.625 119.48828125 C33.17640625 120.05546875 32.7278125 120.62265625 32.265625 121.20703125 C31.80671875 121.77421875 31.3478125 122.34140625 30.875 122.92578125 C29.45559928 124.68981048 29.45559928 124.68981048 28.3984375 126.77416992 C26.08572904 129.14835469 24.41311463 129.24941888 21.17144775 129.3910675 C20.4651825 129.39865585 19.75891724 129.4062442 19.03125 129.4140625 C18.29743103 129.42974777 17.56361206 129.44543304 16.80755615 129.46159363 C15.25432436 129.48621391 13.70088418 129.49979962 12.14746094 129.50317383 C9.7848191 129.51939943 7.43119975 129.60473971 5.0703125 129.69335938 C-5.95463197 129.89197134 -5.95463197 129.89197134 -10.03735352 126.72949219 C-11.78708107 124.46403865 -13.13648736 122.22480499 -14.484375 119.70703125 C-20.94129914 113.41566927 -28.09554418 112.38233169 -36.75 112.11328125 C-39.96588897 111.63549203 -41.25999695 111.07539806 -43.484375 108.70703125 C-44.53125 105.78125 -44.53125 105.78125 -45.234375 102.39453125 C-45.47671875 101.28464844 -45.7190625 100.17476563 -45.96875 99.03125 C-46.92993498 92.83451957 -46.92993498 92.83451957 -46.484375 89.70703125 C-44.21875 87.46875 -44.21875 87.46875 -41.234375 85.39453125 C-35.99982746 81.33893586 -32.82053535 78.28811953 -31.484375 71.70703125 C-30.54578848 63.8670733 -30.77064135 56.91671606 -34.70703125 49.9453125 C-36.80117661 47.3080701 -39.09562821 45.5234349 -41.796875 43.51953125 C-46.39092534 40.08082988 -46.39092534 40.08082988 -47.296875 36.45703125 C-46.8946875 34.60078125 -46.8946875 34.60078125 -46.484375 32.70703125 C-46.29746094 31.71703125 -46.11054687 30.72703125 -45.91796875 29.70703125 C-44.1897003 21.49034925 -44.1897003 21.49034925 -41.859375 18.90234375 C-38.57694441 17.25033098 -35.33708798 17.09658794 -31.734375 16.83203125 C-23.41179762 15.9972467 -18.16116047 13.98449546 -12.671875 7.64453125 C-10.53437962 4.91681909 -10.53437962 4.91681909 -9.31542969 2.56762695 C-6.58562499 -0.20621859 -3.68773873 0.03962229 0 0 Z M-8.19921875 8.5859375 C-8.97131293 9.95383077 -9.73391382 11.32715102 -10.484375 12.70703125 C-18.41528421 20.63794046 -27.63030253 22.33403907 -38.484375 22.70703125 C-41.53901146 30.07260556 -41.53901146 30.07260556 -41.484375 37.70703125 C-39.35044321 39.654244 -37.09628797 41.30566484 -34.74609375 42.984375 C-30.01128782 46.59067796 -28.07987951 51.1328636 -26.484375 56.70703125 C-25.43621853 66.88389929 -26.45134579 76.82860984 -32.859375 85.14453125 C-35.60926685 87.82894948 -38.20800405 89.72596975 -41.484375 91.70703125 C-41.36902896 93.27027357 -41.24162374 94.83262808 -41.109375 96.39453125 C-41.03976563 97.26464844 -40.97015625 98.13476562 -40.8984375 99.03125 C-40.46505757 101.8318656 -39.62942055 104.12369677 -38.484375 106.70703125 C-37.75734375 106.72121094 -37.0303125 106.73539062 -36.28125 106.75 C-25.64371923 107.25460082 -16.29070313 109.87526757 -8.88671875 117.86328125 C-7.484375 119.70703125 -7.484375 119.70703125 -6.28466797 122.27416992 C-4.68660249 124.97475652 -4.68660249 124.97475652 -1.66870117 125.40161133 C1.99912664 125.48267267 5.65926459 125.53611575 9.328125 125.51953125 C10.59978516 125.56400391 11.87144531 125.60847656 13.18164062 125.65429688 C19.86453559 125.84897196 19.86453559 125.84897196 25.62109375 122.98510742 C27.12021134 120.95948071 28.28798751 118.90278005 29.515625 116.70703125 C37.57885884 108.14835534 46.11752897 107.2109105 57.515625 106.70703125 C59.58831746 101.792039 61.44037505 97.09433657 60.515625 91.70703125 C58.49590414 89.55355404 56.34690103 88.11579057 53.8828125 86.49609375 C49.25046732 82.9950804 46.54259016 77.38075953 45.515625 71.70703125 C44.76716555 61.16724984 45.32506871 52.97862427 51.890625 44.39453125 C54.6351669 41.58464311 57.17251473 39.72844676 60.515625 37.70703125 C60.40027896 36.14378893 60.27287374 34.58143442 60.140625 33.01953125 C60.03621094 31.71435547 60.03621094 31.71435547 59.9296875 30.3828125 C59.49630757 27.5821969 58.66067055 25.29036573 57.515625 22.70703125 C55.92234375 22.56007813 55.92234375 22.56007813 54.296875 22.41015625 C42.48526617 21.2104197 34.35791689 19.25675884 26.515625 9.70703125 C26.11682129 8.85915039 25.71801758 8.01126953 25.30712891 7.13769531 C23.71746301 4.43847944 23.71746301 4.43847944 20.69995117 4.01245117 C17.03212336 3.93138983 13.37198541 3.87794675 9.703125 3.89453125 C8.43146484 3.85005859 7.15980469 3.80558594 5.84960938 3.75976562 C-2.29219815 3.61553569 -2.29219815 3.61553569 -8.19921875 8.5859375 Z " fill="#030100" transform="translate(54.484375,-0.70703125)"/>
<path d="M0 0 C0.66 0.33 1.32 0.66 2 1 C1.60167969 1.4125 1.20335938 1.825 0.79296875 2.25 C-6.3744032 10.06260982 -7.58024807 16.84752018 -7.3515625 27.3046875 C-6.56903057 35.52996761 -3.00815406 41.60069203 2 48 C-1.37503669 46.8141763 -3.64722731 45.72426311 -6 43 C-6.66 44.32 -7.32 45.64 -8 47 C-11 46 -11 46 -13 43 C-12.625 40.3125 -12.625 40.3125 -12 38 C-11.34 38 -10.68 38 -10 38 C-10.495 36.515 -10.495 36.515 -11 35 C-12.65 34.67 -14.3 34.34 -16 34 C-16 31.36 -16 28.72 -16 26 C-15.01 26 -14.02 26 -13 26 C-13 24.68 -13 23.36 -13 22 C-13.99 22 -14.98 22 -16 22 C-16 19.36 -16 16.72 -16 14 C-15.01 13.67 -14.02 13.34 -13 13 C-12.34 13.33 -11.68 13.66 -11 14 C-10.34 12.35 -9.68 10.7 -9 9 C-10.32 8.67 -11.64 8.34 -13 8 C-12.38722388 5.03824877 -11.74627478 3.61941217 -10 1 C-8.0625 1.375 -8.0625 1.375 -6 2 C-5.67 2.66 -5.34 3.32 -5 4 C-3.35 2.68 -1.7 1.36 0 0 Z " fill="#753C21" transform="translate(107,40)"/>
<path d="M0 0 C0.33 1.32 0.66 2.64 1 4 C2.98 2.68 4.96 1.36 7 0 C7.66 0.33 8.32 0.66 9 1 C8.52949219 1.44730469 8.05898437 1.89460938 7.57421875 2.35546875 C6.95160156 2.96003906 6.32898438 3.56460938 5.6875 4.1875 C5.07261719 4.77917969 4.45773438 5.37085937 3.82421875 5.98046875 C1.8719286 7.94342805 1.8719286 7.94342805 0.78710938 10.59570312 C-1 13 -1 13 -3.91088867 13.56762695 C-5.0682251 13.54144287 -6.22556152 13.51525879 -7.41796875 13.48828125 C-8.67158203 13.47216797 -9.92519531 13.45605469 -11.21679688 13.43945312 C-12.52712891 13.39755859 -13.83746094 13.35566406 -15.1875 13.3125 C-16.52274529 13.28741661 -17.85803529 13.26460348 -19.19335938 13.24414062 C-22.46336707 13.18511522 -25.73112333 13.10281476 -29 13 C-29 12.67 -29 12.34 -29 12 C-20.75 12 -12.5 12 -4 12 C-4 11.34 -4 10.68 -4 10 C-4.99 9.34 -5.98 8.68 -7 8 C-6.62952882 5.25851328 -6.31412056 3.41406801 -4.625 1.1875 C-3 0 -3 0 0 0 Z " fill="#733B20" transform="translate(79,111)"/>
<path d="M0 0 C1.65 0.99 3.3 1.98 5 3 C4.22095672 13.55808656 4.22095672 13.55808656 2 18 C0.68 17.67 -0.64 17.34 -2 17 C-1.67 14.36 -1.34 11.72 -1 9 C-1.8971875 8.566875 -1.8971875 8.566875 -2.8125 8.125 C-5 7 -5 7 -8 5 C-7.67 4.01 -7.34 3.02 -7 2 C-4.23723823 2.52268466 -1.6739124 3.10869587 1 4 C0.67 2.68 0.34 1.36 0 0 Z " fill="#733B20" transform="translate(110,88)"/>
<path d="M0 0 C4.54079891 -0.23290742 9.08006094 -0.37462237 13.625 -0.5 C15.55279297 -0.60054688 15.55279297 -0.60054688 17.51953125 -0.703125 C26.87089522 -0.89693565 26.87089522 -0.89693565 30.15380859 1.7109375 C31.67522835 3.74384099 32.8431217 5.74495714 34 8 C35.32481269 9.67344761 36.65407903 11.34348188 38 13 C34.9168649 11.80100302 31.93720508 10.52299523 29 9 C29 9.99 29 10.98 29 12 C26.625 11.6875 26.625 11.6875 24 11 C22 8 22 8 22.25 5.875 C23 4 23 4 25 3 C25 2.34 25 1.68 25 1 C16.75 1 8.5 1 0 1 C0 0.67 0 0.34 0 0 Z " fill="#723A20" transform="translate(50,4)"/>
<path d="M0 0 C1.65 0.33 3.3 0.66 5 1 C5.36644578 2.55966592 5.71760862 4.12292651 6.0625 5.6875 C6.25972656 6.55761719 6.45695312 7.42773438 6.66015625 8.32421875 C7.0256351 11.20183962 6.84574931 13.23209318 6 16 C3.9375 17.3125 3.9375 17.3125 2 18 C2.33 16.35 2.66 14.7 3 13 C2.2575 13.515625 1.515 14.03125 0.75 14.5625 C-2 16 -2 16 -4.3125 15.6875 C-4.869375 15.460625 -5.42625 15.23375 -6 15 C-4.85900474 11.57701423 -3.99914379 10.85241234 -1 9 C-0.01 9 0.98 9 2 9 C1.34 6.03 0.68 3.06 0 0 Z " fill="#733B20" transform="translate(108,22)"/>
<path d="M0 0 C-0.54723683 3.37462715 -1.0549 5.08235 -3 8 C-4.32 8 -5.64 8 -7 8 C-6.62952882 5.25851328 -6.31412056 3.41406801 -4.625 1.1875 C-3 0 -3 0 0 0 Z " fill="#0D0703" transform="translate(79,111)"/>
<path d="M0 0 C2.75457718 0.37994168 3.82020574 0.8073633 5.75 2.875 C7 5 7 5 7 8 C4.625 7.6875 4.625 7.6875 2 7 C0 4 0 4 0 0 Z " fill="#0B0603" transform="translate(49,111)"/>
<path d="M0 0 C0.86625 0.3403125 0.86625 0.3403125 1.75 0.6875 C0.6524777 3.68074263 0.07317108 4.53360901 -2.875 5.9375 C-3.65875 6.185 -4.4425 6.4325 -5.25 6.6875 C-5.58 5.3675 -5.91 4.0475 -6.25 2.6875 C-2.80384615 -0.38942308 -2.80384615 -0.38942308 0 0 Z " fill="#120905" transform="translate(88.25,102.3125)"/>
<path d="M0 0 C2.98704569 0.49784095 4.39324263 1.26216175 7 3 C6.67 4.32 6.34 5.64 6 7 C1.32307692 5.52307692 1.32307692 5.52307692 -0.3125 2.875 C-0.539375 2.25625 -0.76625 1.6375 -1 1 C-0.67 0.67 -0.34 0.34 0 0 Z " fill="#120905" transform="translate(39,102)"/>
<path d="M0 0 C1.875 0.3125 1.875 0.3125 4 1 C6 4 6 4 5.625 6.1875 C5.41875 6.785625 5.2125 7.38375 5 8 C4.01 8 3.02 8 2 8 C0.25 5.6875 0.25 5.6875 -1 3 C-0.67 2.01 -0.34 1.02 0 0 Z " fill="#0C0603" transform="translate(28,41)"/>
<path d="M0 0 C1.32 0.33 2.64 0.66 4 1 C2.52307692 5.67692308 2.52307692 5.67692308 -0.125 7.3125 C-1.053125 7.6528125 -1.053125 7.6528125 -2 8 C-2.6875 6.25 -2.6875 6.25 -3 4 C-1.5625 1.75 -1.5625 1.75 0 0 Z " fill="#0A0502" transform="translate(97,41)"/>
<path d="M0 0 C2.98704569 0.49784095 4.39324263 1.26216175 7 3 C6.67 4.32 6.34 5.64 6 7 C1.32307692 5.52307692 1.32307692 5.52307692 -0.3125 2.875 C-0.539375 2.25625 -0.76625 1.6375 -1 1 C-0.67 0.67 -0.34 0.34 0 0 Z " fill="#0B0503" transform="translate(82,19)"/>
<path d="M0 0 C0.86625 0.3403125 0.86625 0.3403125 1.75 0.6875 C0.6524777 3.68074263 0.07317108 4.53360901 -2.875 5.9375 C-3.65875 6.185 -4.4425 6.4325 -5.25 6.6875 C-5.58 5.3675 -5.91 4.0475 -6.25 2.6875 C-2.80384615 -0.38942308 -2.80384615 -0.38942308 0 0 Z " fill="#0B0503" transform="translate(45.25,19.3125)"/>
<path d="M0 0 C1.32 0 2.64 0 4 0 C5.42944945 2.35438733 6.08661261 3.48032433 5.625 6.25 C5.41875 6.8275 5.2125 7.405 5 8 C2 7 2 7 0 4 C0 2.68 0 1.36 0 0 Z " fill="#0D0603" transform="translate(94,79)"/>
<path d="M0 0 C1.32 0.33 2.64 0.66 4 1 C4 3.31 4 5.62 4 8 C2.68 8 1.36 8 0 8 C0 5.36 0 2.72 0 0 Z " fill="#0E0704" transform="translate(91,66)"/>
<path d="M0 0 C0.99 0 1.98 0 3 0 C3 2.64 3 5.28 3 8 C1.68 8 0.36 8 -1 8 C-1.04241723 5.66705225 -1.04092937 3.33297433 -1 1 C-0.67 0.67 -0.34 0.34 0 0 Z " fill="#0F0704" transform="translate(34,66)"/>
<path d="M0 0 C0.99 0.33 1.98 0.66 3 1 C3 3.64 3 6.28 3 9 C1.68 8.67 0.36 8.34 -1 8 C-1.04241723 5.66705225 -1.04092937 3.33297433 -1 1 C-0.67 0.67 -0.34 0.34 0 0 Z " fill="#0F0804" transform="translate(34,53)"/>
<path d="M0 0 C2.375 0.3125 2.375 0.3125 5 1 C7 4 7 4 7 7 C4.625 6.6875 4.625 6.6875 2 6 C0 3 0 3 0 0 Z " fill="#0C0603" transform="translate(72,9)"/>
<path d="M0 0 C1.32 0 2.64 0 4 0 C3.38722388 2.96175123 2.74627478 4.38058783 1 7 C-0.32 7 -1.64 7 -3 7 C-2.38722388 4.03824877 -1.74627478 2.61941217 0 0 Z " fill="#0D0603" transform="translate(52,9)"/>
<path d="M0 0 C2.31 0.33 4.62 0.66 7 1 C7 2.32 7 3.64 7 5 C4.69 4.67 2.38 4.34 0 4 C0 2.68 0 1.36 0 0 Z " fill="#0B0503" transform="translate(26,98)"/>
<path d="M0 0 C4.75 0.75 4.75 0.75 7 3 C7 3.99 7 4.98 7 6 C3.62537285 5.45276317 1.91765 4.9451 -1 3 C-0.67 2.01 -0.34 1.02 0 0 Z " fill="#0A0502" transform="translate(103,90)"/>
<path d="M0 0 C0.598125 0.20625 1.19625 0.4125 1.8125 0.625 C0.8125 3.625 0.8125 3.625 -2.1875 5.625 C-3.5075 5.625 -4.8275 5.625 -6.1875 5.625 C-5.875 3.75 -5.875 3.75 -5.1875 1.625 C-2.1875 -0.375 -2.1875 -0.375 0 0 Z " fill="#0A0502" transform="translate(24.1875,90.375)"/>
<path d="M0 0 C1.32 0 2.64 0 4 0 C3.45276317 3.37462715 2.9451 5.08235 1 8 C0.01 7.67 -0.98 7.34 -2 7 C-1.125 2.25 -1.125 2.25 0 0 Z " fill="#0A0503" transform="translate(30,79)"/>
<path d="M0 0 C0.99 0.33 1.98 0.66 3 1 C3.125 6.75 3.125 6.75 2 9 C1.01 9 0.02 9 -1 9 C-1.09765625 2.84765625 -1.09765625 2.84765625 -1 1 C-0.67 0.67 -0.34 0.34 0 0 Z " fill="#0D0603" transform="translate(92,53)"/>
<path d="M0 0 C-0.3125 1.875 -0.3125 1.875 -1 4 C-4 6 -4 6 -6.1875 5.625 C-6.785625 5.41875 -7.38375 5.2125 -8 5 C-6.44843568 0.34530705 -4.78780941 0 0 0 Z " fill="#0A0502" transform="translate(110,32)"/>
<path d="M0 0 C3.37462715 0.54723683 5.08235 1.0549 8 3 C7.67 3.99 7.34 4.98 7 6 C2.25 5.25 2.25 5.25 0 3 C0 2.01 0 1.02 0 0 Z " fill="#0A0503" transform="translate(18,32)"/>
<path d="M0 0 C2.31 0.33 4.62 0.66 7 1 C7 2.32 7 3.64 7 5 C4.69 4.67 2.38 4.34 0 4 C0 2.68 0 1.36 0 0 Z " fill="#0B0503" transform="translate(95,25)"/>
<path d="M0 0 C0 0.99 0 1.98 0 3 C-2.31 3.33 -4.62 3.66 -7 4 C-7 2.68 -7 1.36 -7 0 C-3.86650268 -1.04449911 -3.01031744 -0.93423645 0 0 Z " fill="#090402" transform="translate(102,99)"/>
<path d="M0 0 C-0.33 0.99 -0.66 1.98 -1 3 C-2.98 3.33 -4.96 3.66 -7 4 C-7.33 2.68 -7.66 1.36 -8 0 C-4.71023192 -1.09658936 -3.28696233 -0.79953138 0 0 Z " fill="#090402" transform="translate(34,26)"/>
<path d="M0 0 C1.98 0 3.96 0 6 0 C6.33 1.32 6.66 2.64 7 4 C4.36 4 1.72 4 -1 4 C-0.67 2.68 -0.34 1.36 0 0 Z " fill="#090402" transform="translate(61,115)"/>
<path d="M0 0 C2.64 0 5.28 0 8 0 C7.67 1.32 7.34 2.64 7 4 C5.02 4 3.04 4 1 4 C0.67 2.68 0.34 1.36 0 0 Z " fill="#090402" transform="translate(60,9)"/>
</svg>
