<?xml version="1.0" encoding="UTF-8"?>
<svg version="1.1" xmlns="http://www.w3.org/2000/svg" width="128" height="128">
<path d="M0 0 C0.86890869 0.01619385 1.73781738 0.0323877 2.63305664 0.04907227 C3.99732788 0.03759155 3.99732788 0.03759155 5.38916016 0.02587891 C7.30546516 0.02045307 9.22191983 0.0350909 11.13793945 0.06860352 C14.06416279 0.11147858 16.9805745 0.06899879 19.90649414 0.01782227 C21.77370321 0.02310909 23.6409062 0.03335969 25.50805664 0.04907227 C26.37696533 0.03287842 27.24587402 0.01668457 28.14111328 0 C34.15762375 0.18478734 34.15762375 0.18478734 36.80429077 2.87161255 C37.81313744 4.29228539 38.78963854 5.73652667 39.73114014 7.20269775 C41.59393336 9.85746458 43.51949078 10.68224525 46.54711914 11.72875977 C47.54743164 12.1090332 48.54774414 12.48930664 49.57836914 12.88110352 C51.66099399 13.6196785 53.74698807 14.34881916 55.83618164 15.06860352 C63.20845868 17.89750052 63.20845868 17.89750052 65.48657227 21.10571289 C66.57415824 23.74008781 67.32585 26.36001193 68.07055664 29.11157227 C68.69741624 30.96412381 69.32491347 32.81649116 69.96463013 34.66464233 C70.88940611 37.36008687 71.76735138 40.06984264 72.64477539 42.78100586 C73.3248039 44.87464856 74.01785079 46.96370901 74.71118164 49.05297852 C75.14948425 50.40037394 75.5870122 51.74802167 76.02368164 53.09594727 C76.41716797 54.29960938 76.8106543 55.50327148 77.21606445 56.7434082 C78.04788344 60.02220097 78.23858619 62.74713329 78.07055664 66.11157227 C56.93531074 75.11157227 56.93531074 75.11157227 52.07055664 75.11157227 C52.07055664 92.93157227 52.07055664 110.75157227 52.07055664 129.11157227 C47.61555664 129.19407227 43.16055664 129.27657227 38.57055664 129.36157227 C37.1815918 129.39798828 35.79262695 129.4344043 34.36157227 129.47192383 C27.01753445 129.53760911 22.35192657 128.93468698 16.07055664 125.11157227 C12.83242062 125.19055119 11.14684293 126.06866123 8.32055664 127.65844727 C2.44904254 130.18400265 -4.10821291 129.42133986 -10.36694336 129.29907227 C-17.08038086 129.20625977 -17.08038086 129.20625977 -23.92944336 129.11157227 C-23.92944336 111.29157227 -23.92944336 93.47157227 -23.92944336 75.11157227 C-25.57944336 74.78157227 -27.22944336 74.45157227 -28.92944336 74.11157227 C-30.54822545 73.60971671 -32.15779659 73.07732628 -33.75756836 72.51782227 C-34.63928711 72.20973633 -35.52100586 71.90165039 -36.42944336 71.58422852 C-37.33694336 71.26325195 -38.24444336 70.94227539 -39.17944336 70.61157227 C-40.10241211 70.2905957 -41.02538086 69.96961914 -41.97631836 69.63891602 C-48.80065226 67.24036337 -48.80065226 67.24036337 -49.92944336 66.11157227 C-49.74227947 57.3962285 -46.85748731 49.13283915 -44.27636719 40.89916992 C-43.75277718 39.20536522 -43.24593458 37.50629397 -42.75585938 35.80249023 C-38.69888295 21.70812309 -38.69888295 21.70812309 -34.54321289 17.95849609 C-32.01487367 16.6683948 -29.6690695 15.8336612 -26.92944336 15.11157227 C-25.64800772 14.61886764 -24.37124474 14.11369428 -23.10131836 13.59204102 C-20.81351318 12.72758495 -18.5217785 11.87346018 -16.22631836 11.02954102 C-12.862643 9.07271092 -12.24463863 8.22002662 -10.32104492 5.05810547 C-7.27030065 0.88704552 -5.06978154 0.1557101 0 0 Z " fill="#072D76" transform="translate(49.929443359375,-1.111572265625)"/>
<path d="M0 0 C0.05994141 0.90492187 0.05994141 0.90492187 0.12109375 1.828125 C0.4668461 4.47462445 0.88605245 6.56612969 2 9 C4.24401542 10.53984423 6.33227019 11.38113625 8.90625 12.24609375 C11 13 11 13 13 15 C11.4375 16.20442708 9.875 17.40885417 8.3125 18.61328125 C6.65629795 20.04491137 6.65629795 20.04491137 7 23 C15.415 26.96 15.415 26.96 24 31 C24.18083625 40.17083214 24.32755747 49.34047814 24.41449738 58.51269054 C24.4562276 62.77191146 24.51280966 67.0298483 24.60351562 71.28833008 C24.69052906 75.39924507 24.73829045 79.50892645 24.75901794 83.6206913 C24.77378526 85.18813822 24.80262551 86.75551852 24.84584045 88.32243919 C25.17023654 100.57341046 25.17023654 100.57341046 22.30639648 104.06460571 C13.37534863 109.89404865 3.62897551 108 -7 108 C-7 81.6 -7 55.2 -7 28 C-8.32 28.33 -9.64 28.66 -11 29 C-11.33 36.92 -11.66 44.84 -12 53 C-22.43763676 50.68052516 -22.43763676 50.68052516 -26.5 49.125 C-27.3353125 48.81820312 -28.170625 48.51140625 -29.03125 48.1953125 C-31 47 -31 47 -31.75463867 45.41503906 C-32.12511822 41.76848809 -30.98330521 38.60131499 -29.89453125 35.1640625 C-29.53557014 34.02860489 -29.53557014 34.02860489 -29.1693573 32.87020874 C-28.65529707 31.26944231 -28.13455946 29.67080711 -27.60766602 28.07421875 C-27.08078632 26.45135812 -26.57362776 24.82195188 -26.0871582 23.18652344 C-22.06540554 9.67037133 -22.06540554 9.67037133 -17.07177734 5.63183594 C-14.07126976 4.11663251 -11.2068344 2.99111915 -8 2 C-7.11546143 1.6282666 -6.23092285 1.2565332 -5.31958008 0.87353516 C-3 0 -3 0 0 0 Z " fill="#66CBD0" transform="translate(38,15)"/>
<path d="M0 0 C4.22529506 0.70555212 8.06665666 1.96149347 12.0625 3.5 C13.27035156 3.9434375 14.47820312 4.386875 15.72265625 4.84375 C20.28739015 7.84700758 21.25521226 10.95531687 23 16 C23.38373779 17.05461426 23.76747559 18.10922852 24.1628418 19.19580078 C25.42200716 22.72146379 26.62288479 26.26281083 27.8125 29.8125 C28.23208984 31.02615234 28.65167969 32.23980469 29.08398438 33.49023438 C29.47521484 34.65490234 29.86644531 35.81957031 30.26953125 37.01953125 C30.62635986 38.07245361 30.98318848 39.12537598 31.35083008 40.21020508 C32.00641209 43.02755582 32.2404664 44.39923485 31 47 C28.34594287 48.29437238 25.89905684 49.30440845 23.125 50.25 C22.39152344 50.518125 21.65804687 50.78625 20.90234375 51.0625 C17.82741508 52.16028874 15.28700912 53 12 53 C11.67 45.08 11.34 37.16 11 29 C9.68 28.67 8.36 28.34 7 28 C7 54.4 7 80.8 7 108 C-14 108 -14 108 -23 103 C-24 102 -24 102 -24.12025452 99.18431091 C-24.11803391 97.92522415 -24.11581329 96.66613739 -24.11352539 95.36889648 C-24.11367142 94.67624695 -24.11381744 93.98359741 -24.1139679 93.2699585 C-24.11326874 90.97030554 -24.10547628 88.67073263 -24.09765625 86.37109375 C-24.09579208 84.78068588 -24.09436817 83.19027743 -24.09336853 81.59986877 C-24.08954329 77.4060407 -24.07971295 73.21224705 -24.06866455 69.01843262 C-24.05845057 64.74211086 -24.05387094 60.46578356 -24.04882812 56.18945312 C-24.03809068 47.79295116 -24.02049384 39.39648382 -24 31 C-18.39 28.36 -12.78 25.72 -7 23 C-8.13365108 18.46539569 -9.64193374 17.09975347 -13 14 C-11.84371094 13.61521484 -11.84371094 13.61521484 -10.6640625 13.22265625 C-4.73106854 11.19237797 -4.73106854 11.19237797 -0.82421875 6.6640625 C-0.35934108 4.41419653 -0.06499297 2.29475179 0 0 Z " fill="#66CBD0" transform="translate(90,15)"/>
<path d="M0 0 C0.33 0 0.66 0 1 0 C1.01417969 1.14855469 1.02835938 2.29710937 1.04296875 3.48046875 C1.40620291 17.78725757 4.42846138 32.82735233 15.26635742 43.16088867 C16.05888916 43.9057251 16.8514209 44.65056152 17.66796875 45.41796875 C22.42707892 50.64080445 22.96047 54.5477615 22.79101562 61.4765625 C22.71560547 62.68054688 22.64019531 63.88453125 22.5625 65.125 C22.52189453 66.36765625 22.48128906 67.6103125 22.43945312 68.890625 C22.33420064 71.93125232 22.18694593 74.96348673 22 78 C15.03580586 80.32139805 7.34090518 79 0 79 C0 52.93 0 26.86 0 0 Z " fill="#279FC9" transform="translate(31,44)"/>
<path d="M0 0 C0.66 0.33 1.32 0.66 2 1 C1.66226563 1.94359375 1.32453125 2.8871875 0.9765625 3.859375 C-1.8212204 11.8513981 -3.94675805 19.55834438 -5 28 C-5.99 28.33 -6.98 28.66 -8 29 C-8.33 36.92 -8.66 44.84 -9 53 C-19.43763676 50.68052516 -19.43763676 50.68052516 -23.5 49.125 C-24.3353125 48.81820312 -25.170625 48.51140625 -26.03125 48.1953125 C-28 47 -28 47 -28.75463867 45.41503906 C-29.12511822 41.76848809 -27.98330521 38.60131499 -26.89453125 35.1640625 C-26.53557014 34.02860489 -26.53557014 34.02860489 -26.1693573 32.87020874 C-25.65529707 31.26944231 -25.13455946 29.67080711 -24.60766602 28.07421875 C-24.08078632 26.45135812 -23.57362776 24.82195188 -23.0871582 23.18652344 C-19.06540554 9.67037133 -19.06540554 9.67037133 -14.07177734 5.63183594 C-11.07126976 4.11663251 -8.2068344 2.99111915 -5 2 C-4.09483643 1.6076416 -3.18967285 1.2152832 -2.25708008 0.81103516 C-1.51224365 0.54339355 -0.76740723 0.27575195 0 0 Z " fill="#27A0CA" transform="translate(35,15)"/>
<path d="M0 0 C3.75635569 0.75127114 5.83210307 1.24005726 9 3 C9.18547009 12.17062333 9.32755862 21.3406001 9.41449738 30.51269054 C9.4562276 34.77191146 9.51280966 39.0298483 9.60351562 43.28833008 C9.69052906 47.39924507 9.73829045 51.50892645 9.75901794 55.6206913 C9.77378526 57.18813822 9.80262551 58.75551852 9.84584045 60.32243919 C10.1717973 72.63235321 10.1717973 72.63235321 7.20092773 76.09976196 C2.67452788 79 2.67452788 79 0 79 C0 52.93 0 26.86 0 0 Z " fill="#FCDFBD" transform="translate(53,43)"/>
<path d="M0 0 C0 26.07 0 52.14 0 79 C-8 75 -8 75 -9 74 C-9.09432985 71.79132169 -9.11742431 69.57958479 -9.11352539 67.36889648 C-9.11367142 66.67624695 -9.11381744 65.98359741 -9.1139679 65.2699585 C-9.11326874 62.97030554 -9.10547628 60.67073263 -9.09765625 58.37109375 C-9.09579208 56.78068588 -9.09436817 55.19027743 -9.09336853 53.59986877 C-9.08954329 49.4060407 -9.07971295 45.21224705 -9.06866455 41.01843262 C-9.05845057 36.74211086 -9.05387094 32.46578356 -9.04882812 28.18945312 C-9.03809069 19.79295292 -9.02101419 11.39648074 -9 3 C-3.375 0 -3.375 0 0 0 Z " fill="#FCDFBD" transform="translate(75,43)"/>
<path d="M0 0 C9.9 0 19.8 0 30 0 C20.07972665 23.24601367 20.07972665 23.24601367 16 32 C15.34 32 14.68 32 14 32 C12.00380755 27.6045086 10.01004174 23.20792804 8.01855469 18.81030273 C7.34019123 17.3132528 6.66115597 15.8165071 5.98144531 14.32006836 C5.00671024 12.17380404 4.03436638 10.02647079 3.0625 7.87890625 C2.75626709 7.20598038 2.45003418 6.5330545 2.13452148 5.83973694 C0 1.11387171 0 1.11387171 0 0 Z " fill="#26A0CA" transform="translate(49,5)"/>
<path d="M0 0 C0.33 0 0.66 0 1 0 C1 26.07 1 52.14 1 79 C-5.93 79 -12.86 79 -20 79 C-21 78 -21 78 -21.09765625 75.05859375 C-21.08605469 73.86363281 -21.07445313 72.66867188 -21.0625 71.4375 C-21.05347656 70.23996094 -21.04445313 69.04242188 -21.03515625 67.80859375 C-21.02355469 66.88175781 -21.01195313 65.95492187 -21 65 C-13.90431611 65.70956839 -7.07122663 66.82146223 0 68 C0 45.56 0 23.12 0 0 Z " fill="#2D9DC5" transform="translate(96,44)"/>
<path d="M0 0 C0.33 0 0.66 0 1 0 C1.18547009 9.17062333 1.32755862 18.3406001 1.41449738 27.51269054 C1.4562276 31.77191146 1.51280966 36.0298483 1.60351562 40.28833008 C1.69052906 44.39924507 1.73829045 48.50892645 1.75901794 52.6206913 C1.77378526 54.18813822 1.80262551 55.75551852 1.84584045 57.32243919 C2.1717973 69.63235321 2.1717973 69.63235321 -0.79907227 73.09976196 C-5.32547212 76 -5.32547212 76 -8 76 C-8 67.42 -8 58.84 -8 50 C-4.535 51.98 -4.535 51.98 -1 54 C-0.67 36.18 -0.34 18.36 0 0 Z " fill="#D2A17C" transform="translate(61,46)"/>
<path d="M0 0 C5.85659906 1.66153012 11.4590134 3.47041916 17 6 C17 9.96 17 13.92 17 18 C3.61559889 15.40947075 3.61559889 15.40947075 -2 12 C-3.11558104 9.60875455 -3.10649463 8.40810531 -2.44140625 5.859375 C-2.15136719 5.16328125 -1.86132812 4.4671875 -1.5625 3.75 C-1.27503906 3.04359375 -0.98757812 2.3371875 -0.69140625 1.609375 C-0.46324219 1.07828125 -0.23507812 0.5471875 0 0 Z " fill="#289DC7" transform="translate(9,50)"/>
<path d="M0 0 C0.5345256 1.24420647 1.05208611 2.49570936 1.5625 3.75 C1.85253906 4.44609375 2.14257812 5.1421875 2.44140625 5.859375 C3.10248392 8.39273557 2.92864416 9.56776505 2 12 C-0.65405713 13.29437238 -3.10094316 14.30440845 -5.875 15.25 C-6.60847656 15.518125 -7.34195313 15.78625 -8.09765625 16.0625 C-11.17258492 17.16028874 -13.71299088 18 -17 18 C-17 14.04 -17 10.08 -17 6 C-15.06305322 5.18618205 -13.12542289 4.37399084 -11.1875 3.5625 C-10.10855469 3.11003906 -9.02960938 2.65757813 -7.91796875 2.19140625 C-2.55081967 0 -2.55081967 0 0 0 Z " fill="#68C9CE" transform="translate(119,50)"/>
<path d="M0 0 C0.33 0 0.66 0 1 0 C1.33 19.47 1.66 38.94 2 59 C4.31 59.99 6.62 60.98 9 62 C9 66.62 9 71.24 9 76 C1.125 72.125 1.125 72.125 0 71 C-0.09432985 68.79132169 -0.11742431 66.57958479 -0.11352539 64.36889648 C-0.11367142 63.67624695 -0.11381744 62.98359741 -0.1139679 62.2699585 C-0.11326874 59.97030554 -0.10547628 57.67073263 -0.09765625 55.37109375 C-0.09579208 53.78068588 -0.09436817 52.19027743 -0.09336853 50.59986877 C-0.08954329 46.4060407 -0.07971295 42.21224705 -0.06866455 38.01843262 C-0.05845057 33.74211086 -0.05387094 29.46578356 -0.04882812 25.18945312 C-0.03809069 16.79295292 -0.02101419 8.39648074 0 0 Z " fill="#C59C80" transform="translate(66,46)"/>
<path d="M0 0 C0.33 1.65 0.66 3.3 1 5 C-1.62353518 6.00399524 -4.24867795 7.00334445 -6.875 8 C-7.62136719 8.28617188 -8.36773437 8.57234375 -9.13671875 8.8671875 C-14.7734375 11 -14.7734375 11 -17 11 C-17 9.35 -17 7.7 -17 6 C-15.06305322 5.18618205 -13.12542289 4.37399084 -11.1875 3.5625 C-10.10855469 3.11003906 -9.02960938 2.65757813 -7.91796875 2.19140625 C-2.55081967 0 -2.55081967 0 0 0 Z " fill="#F3DDBE" transform="translate(119,50)"/>
<path d="M0 0 C5.85659906 1.66153012 11.4590134 3.47041916 17 6 C17 7.65 17 9.3 17 11 C10.76559832 9.41039668 4.83712355 7.72399099 -1 5 C-0.67 3.35 -0.34 1.7 0 0 Z " fill="#EBAE77" transform="translate(9,50)"/>
<path d="M0 0 C3.29818961 1.64909481 3.870756 5.27085964 5.125 8.5625 C5.40214844 9.27341797 5.67929687 9.98433594 5.96484375 10.71679688 C6.64942596 12.47546496 7.32551635 14.23743424 8 16 C5.36 15.34 2.72 14.68 0 14 C-0.39012425 12.23243706 -0.7616098 10.46075217 -1.125 8.6875 C-1.33382812 7.70136719 -1.54265625 6.71523437 -1.7578125 5.69921875 C-2 3 -2 3 0 0 Z " fill="#EAD2B8" transform="translate(44,8)"/>
<path d="M0 0 C1.55078125 1.14453125 1.55078125 1.14453125 3 3 C2.85546875 5.69921875 2.85546875 5.69921875 2.1875 8.6875 C1.97480469 9.68136719 1.76210937 10.67523438 1.54296875 11.69921875 C1.36378906 12.45847656 1.18460938 13.21773437 1 14 C-1.64 14.66 -4.28 15.32 -7 16 C-4.87594923 10.5443163 -2.72823857 5.18365329 0 0 Z " fill="#EAD2B8" transform="translate(83,8)"/>
<path d="M0 0 C1.32 0.66 2.64 1.32 4 2 C1.94766315 4.2477975 0.99332739 5.0022242 -2 6 C-1.125 1.125 -1.125 1.125 0 0 Z " fill="#EAD2B8" transform="translate(72,33)"/>
<path d="M0 0 C0.99 0.33 1.98 0.66 3 1 C3.33 2.65 3.66 4.3 4 6 C2.02 5.01 0.04 4.02 -2 3 C-1.34 2.01 -0.68 1.02 0 0 Z " fill="#E9D1B8" transform="translate(54,33)"/>
</svg>
