<?xml version="1.0" encoding="UTF-8"?>
<svg version="1.1" xmlns="http://www.w3.org/2000/svg" width="128" height="128">
<path d="M0 0 C3.43745112 2.93615616 5.32430831 5.51937219 5.875 10 C5.62882019 15.55798261 2.33940892 19.73995821 -0.79736328 24.12695312 C-3.18671841 27.48925896 -4 28.73389883 -4 33 C1.419554 32.57493694 3.89524033 31.45663972 8 28 C11.55263593 26.59764371 12.92922234 26.97681422 16.625 28.1875 C21.36708861 30.73417722 21.36708861 30.73417722 23 34 C23.99286767 37.82963243 24.28178398 40.17225957 23 43.9375 C20.78899343 47.3231038 18.24273591 49.98713697 15.328125 52.77734375 C13.70665055 55.05525185 13.70665055 55.05525185 14.01953125 58.40234375 C15.13485889 62.49484077 16.61542944 64.49137285 19.4375 67.625 C23.67625751 72.37404132 26.04055794 75.44484949 25.9375 81.9375 C25.21571415 86.23577527 23.46867756 89.33242178 20 92 C14.65213454 94.93303474 9.94950743 95.52091437 4.0859375 93.875 C0.70126141 92.45521078 -1.43805648 90.62763438 -4 88 C-4 87.34 -4 86.68 -4 86 C-4.598125 85.71125 -5.19625 85.4225 -5.8125 85.125 C-8 84 -8 84 -11 82 C-14.91772967 81.39057538 -16.57054551 81.72588011 -19.9375 83.875 C-22.60461595 86.29901944 -24.45427789 89.06553266 -26.4375 92.0625 C-30.18100509 97.64040559 -33.61186533 99.87062178 -40 102 C-46.00282609 102.60493596 -50.64207599 101.988073 -56 99 C-61.45814715 94.41019444 -64.40422615 89.32678123 -65.0625 82.140625 C-64.89621526 76.44537254 -62.69729029 71.68910844 -59.25 67.25 C-56.76394091 64.31783361 -56.76394091 64.31783361 -57 61.51171875 C-58.41664293 57.95351014 -60.37910587 57.27672299 -63.75 55.5625 C-68.7027269 52.8326041 -72.13332553 50.9142991 -75 46 C-75.71773857 41.53407112 -75.32766948 39.58980506 -73.125 35.625 C-71 33 -71 33 -69 32 C-62.94472466 31.48684107 -58.89923823 32.16484971 -54 36 C-52.15406739 37.78362265 -50.38995973 39.6011666 -48.67578125 41.51171875 C-46.76808592 43.20596565 -45.52113834 43.71068904 -43 44 C-41.08333333 42.91666667 -41.08333333 42.91666667 -40 41 C-40.10335021 38.00284395 -41.25036121 36.66618506 -43.0625 34.25 C-45.65270807 29.90513485 -45.71407799 27.99854595 -45 23 C-42.59757689 19.67900334 -40.96433323 18.30776592 -37.0625 17.0625 C-33.59070217 16.99164698 -31.26490941 17.86727633 -28 19 C-25.66787973 19.07522969 -23.3314689 19.09325876 -21 19 C-20.82984375 18.13117187 -20.6596875 17.26234375 -20.484375 16.3671875 C-17.91222158 4.1357771 -17.91222158 4.1357771 -14 0 C-9.14330533 -2.64910618 -4.90417943 -2.26579132 0 0 Z " fill="#B22759" transform="translate(86,15)"/>
<path d="M0 0 C3.43745112 2.93615616 5.32430831 5.51937219 5.875 10 C5.62882019 15.55798261 2.33940892 19.73995821 -0.79736328 24.12695312 C-3.18671841 27.48925896 -4 28.73389883 -4 33 C1.419554 32.57493694 3.89524033 31.45663972 8 28 C11.55263593 26.59764371 12.92922234 26.97681422 16.625 28.1875 C21.36708861 30.73417722 21.36708861 30.73417722 23 34 C23.99286767 37.82963243 24.28178398 40.17225957 23 43.9375 C20.78899343 47.3231038 18.24273591 49.98713697 15.328125 52.77734375 C13.70665055 55.05525185 13.70665055 55.05525185 14.01953125 58.40234375 C15.13485889 62.49484077 16.61542944 64.49137285 19.4375 67.625 C23.67625751 72.37404132 26.04055794 75.44484949 25.9375 81.9375 C25.21571415 86.23577527 23.46867756 89.33242178 20 92 C14.65213454 94.93303474 9.94950743 95.52091437 4.0859375 93.875 C0.70126141 92.45521078 -1.43805648 90.62763438 -4 88 C-4 87.34 -4 86.68 -4 86 C-4.598125 85.71125 -5.19625 85.4225 -5.8125 85.125 C-8 84 -8 84 -11 82 C-14.91772967 81.39057538 -16.57054551 81.72588011 -19.9375 83.875 C-22.60461595 86.29901944 -24.45427789 89.06553266 -26.4375 92.0625 C-30.18100509 97.64040559 -33.61186533 99.87062178 -40 102 C-46.00282609 102.60493596 -50.64207599 101.988073 -56 99 C-61.45814715 94.41019444 -64.40422615 89.32678123 -65.0625 82.140625 C-64.89621526 76.44537254 -62.69729029 71.68910844 -59.25 67.25 C-56.76394091 64.31783361 -56.76394091 64.31783361 -57 61.51171875 C-58.41664293 57.95351014 -60.37910587 57.27672299 -63.75 55.5625 C-68.7027269 52.8326041 -72.13332553 50.9142991 -75 46 C-75.71773857 41.53407112 -75.32766948 39.58980506 -73.125 35.625 C-71 33 -71 33 -69 32 C-62.94472466 31.48684107 -58.89923823 32.16484971 -54 36 C-52.15406739 37.78362265 -50.38995973 39.6011666 -48.67578125 41.51171875 C-46.76808592 43.20596565 -45.52113834 43.71068904 -43 44 C-41.08333333 42.91666667 -41.08333333 42.91666667 -40 41 C-40.10335021 38.00284395 -41.25036121 36.66618506 -43.0625 34.25 C-45.65270807 29.90513485 -45.71407799 27.99854595 -45 23 C-42.59757689 19.67900334 -40.96433323 18.30776592 -37.0625 17.0625 C-33.59070217 16.99164698 -31.26490941 17.86727633 -28 19 C-25.66787973 19.07522969 -23.3314689 19.09325876 -21 19 C-20.82984375 18.13117187 -20.6596875 17.26234375 -20.484375 16.3671875 C-17.91222158 4.1357771 -17.91222158 4.1357771 -14 0 C-9.14330533 -2.64910618 -4.90417943 -2.26579132 0 0 Z M-12.8125 4.4375 C-14.22799773 7.4919951 -14.81704823 10.45109357 -15.46875 13.7421875 C-16.18589236 16.79004253 -17.39396639 19.32327731 -19 22 C-23.51716769 24.25858384 -29.53635151 23.12790188 -34.375 22.3125 C-37.84617178 21.68908027 -37.84617178 21.68908027 -40.0625 23.0625 C-41.51696529 26.06839493 -40.93165644 27.83236811 -40 31 C-39.29875 31.94875 -38.5975 32.8975 -37.875 33.875 C-35.98339849 37.02766918 -35.70973346 37.73585223 -36 41.1875 C-37 45 -37 45 -38.6875 47 C-41.92894659 48.40170663 -43.47795653 48.67731605 -47 48 C-49.90367368 45.91209319 -52.43973562 43.49077912 -55 41 C-59.32472558 36.8915107 -62.1980174 36.39335475 -68 36 C-69.88658269 38.12240553 -70.91956289 39.65143919 -71.5625 42.4375 C-70.71127626 46.31529706 -68.16831715 47.92642658 -65 50 C-62.70786614 51.31758715 -60.40153343 52.57917623 -58.05078125 53.7890625 C-55.9763183 55.01398348 -54.53311227 56.14611348 -53 58 C-51.8328955 63.48539114 -53.5561496 66.1970191 -56.5 70.875 C-59.72897224 76.12781083 -61.44383904 79.88357948 -60 86 C-58.38633695 90.62204995 -56.47013993 94.62523816 -52 97 C-47.17830576 98.8289185 -41.91179398 98.64330567 -37.125 96.8125 C-32.46590353 94.33367974 -29.92902824 90.06189083 -27.23291016 85.68481445 C-24.49334229 81.3084655 -21.96557548 78.6981008 -16.859375 77.49609375 C-9.3364564 77.28712379 -4.51725799 80.68436826 0.83984375 85.734375 C1.40832031 86.27578125 1.97679688 86.8171875 2.5625 87.375 C5.08618075 89.60591036 6.74054214 90.42965212 10.125 90.5625 C13.97337018 90.00386562 15.9835147 89.39544421 19 87 C21.60554272 83.09168591 21.73934147 81.65785128 21 77 C19.15153519 74.28949011 17.10786576 71.84405309 14.98046875 69.34765625 C11.14601774 64.80228138 9.40087643 60.8569262 9.6484375 54.94921875 C10.47090979 50.38906686 13.40229176 47.52978685 16.75 44.5625 C19.31625079 42.10220326 19.31625079 42.10220326 19.5625 38.375 C19.30413535 35.00762317 19.30413535 35.00762317 17.3125 33.0625 C14.43476078 31.74029549 13.1394866 31.41590947 10 32 C8.8480162 32.79561471 7.72492528 33.6338396 6.625 34.5 C3.87832993 36.60039476 2.92037389 37.01214636 -0.6875 37.5625 C-4 37 -4 37 -6.4375 35.375 C-8.47038816 32.28501 -8.35226182 30.66084748 -8 27 C-6.5390625 24.11328125 -6.5390625 24.11328125 -4.625 21.3125 C-3.99851562 20.38050781 -3.37203125 19.44851562 -2.7265625 18.48828125 C-1.87191406 17.25658203 -1.87191406 17.25658203 -1 16 C1.34522935 13.11487022 1.34522935 13.11487022 0.875 9.5 C0.28417561 6.05182724 0.28417561 6.05182724 -1.625 4.0625 C-5.47412882 2.34052132 -9.35146101 1.69253804 -12.8125 4.4375 Z " fill="#050102" transform="translate(86,15)"/>
<path d="M0 0 C3.6875 0.4375 3.6875 0.4375 6.6875 2.5 C8.6875 5.4375 8.6875 5.4375 8.9375 8.625 C7.94227365 13.14332762 5.00232381 16.65967224 2.28125 20.30078125 C-0.35014793 23.82866034 -0.75387182 26.02378175 -0.3125 30.4375 C1.47941032 32.72965045 1.47941032 32.72965045 3.6875 34.4375 C4.3475 35.0975 5.0075 35.7575 5.6875 36.4375 C-0.96868861 43.37030943 -0.96868861 43.37030943 -6.0625 43.625 C-9.59962316 42.33258962 -10.92544759 41.29510073 -13.3125 38.4375 C-14.32421875 35.7109375 -14.32421875 35.7109375 -15 32.8125 C-15.86820766 29.01944747 -15.86820766 29.01944747 -17.3125 25.4375 C-20.2825 25.4375 -23.2525 25.4375 -26.3125 25.4375 C-26.9725 27.4175 -27.6325 29.3975 -28.3125 31.4375 C-30.875 29.3125 -30.875 29.3125 -33.3125 26.4375 C-33.125 23.125 -33.125 23.125 -32.3125 20.4375 C-25.6875 19.3125 -25.6875 19.3125 -22.3125 20.4375 C-18.01547159 20.92022326 -14.51058387 21.26694268 -10.875 18.75 C-7.83350752 14.24859113 -6.86654373 9.69335734 -5.875 4.42578125 C-4.86400734 0.85220301 -3.60507062 0.4761414 0 0 Z " fill="#CE3A67" transform="translate(78.3125,17.5625)"/>
<path d="M0 0 C4.98979518 1.69982034 7.85983212 4.88529726 11 9 C13.72871571 11.0700602 15.05915095 10.99896226 18.5625 10.9375 C22.10470151 10.33071407 22.10470151 10.33071407 23.875 7.6875 C24.81578687 5.44006469 25.55735145 3.39030218 26 1 C30.26864981 2.42288327 31.95978188 5.07530559 34 9 C34.67057931 13.32151109 34.52441104 15.16817559 32.1875 18.875 C29.06049275 21.91266418 25.72938059 22.62912085 21.38671875 22.62109375 C16.98047368 21.47446042 13.93621613 18.24803215 10.61328125 15.26171875 C6.76969283 11.93520501 3.70261821 9.57004277 -1.5 9.625 C-2.59828125 9.61339844 -2.59828125 9.61339844 -3.71875 9.6015625 C-7.34227367 10.23443821 -9.88275787 11.61664134 -12.21972656 14.51025391 C-13.90562812 16.93433271 -15.50206163 19.40718592 -17.07421875 21.90625 C-20.17064485 26.54597419 -22.64864827 28.32198207 -28 30 C-31.9375 30.1875 -31.9375 30.1875 -35 30 C-35.33 29.34 -35.66 28.68 -36 28 C-34.2365625 27.319375 -34.2365625 27.319375 -32.4375 26.625 C-24.24043504 22.50478216 -20.38661398 13.21814616 -16.45703125 5.34765625 C-12.44291142 -1.12013468 -6.99681926 -0.8919458 0 0 Z " fill="#CD3A66" transform="translate(73,83)"/>
<path d="M0 0 C5.87263212 2.82756361 8.69415631 6.99655952 11.25 12.875 C12.21447655 16.89365228 12.40055236 19.86095898 12 24 C10.13515766 26.69366116 8.74809697 27.68829293 5.75 28.9375 C-1.4166577 29.10037858 -6.23340236 25.3598987 -11.3359375 20.81640625 C-15.12717449 16.67808418 -15.51665571 12.8829429 -15.36328125 7.41796875 C-15 5 -15 5 -13.125 1.875 C-8.69749779 -0.78150133 -5.03874015 -0.8654016 0 0 Z " fill="#030101" transform="translate(15,0)"/>
<path d="M0 0 C5.50195398 1.00869156 7.66381308 4.21669948 10.75 8.6875 C12.58102237 12.11071573 13.16914644 14.81039544 12.75 18.6875 C10.75 20.6875 10.75 20.6875 8 21.0625 C3.9227625 20.59204952 1.96148424 19.20083549 -1.25 16.6875 C-2.013125 16.130625 -2.77625 15.57375 -3.5625 15 C-6.0309725 11.61727843 -6.67182803 7.85209314 -6.25 3.6875 C-4.25174158 1.00705668 -3.38004239 0.71500897 0 0 Z " fill="#CB3A65" transform="translate(10.25,3.3125)"/>
<path d="M0 0 C2.91806089 1.33590551 3.83391847 2.40070217 6 5 C6.78933877 8.06627753 6.51783673 9.73762859 6 13 C4.5 15.5 4.5 15.5 2 17 C-2.81083621 17.61089984 -4.8428993 17.73857492 -8.9375 15.125 C-11.61649308 12.36482531 -11.95288347 11.50885848 -12.3125 7.625 C-12 4 -12 4 -10.5 1.5625 C-7.00252378 -0.62342263 -3.94511899 -0.85402001 0 0 Z " fill="#020001" transform="translate(122,111)"/>
<path d="M0 0 C1.98828125 0.50390625 1.98828125 0.50390625 3.98828125 3.50390625 C4.50238153 7.35965832 4.16392403 9.17864185 2.30078125 12.62890625 C-0.62609209 16.26772175 -2.95509017 19.06320013 -7.63671875 20.06640625 C-10.01171875 19.50390625 -10.01171875 19.50390625 -11.88671875 17.50390625 C-13.36063172 13.57347165 -13.24024518 10.4428691 -12.01171875 6.50390625 C-9.36096682 0.90655954 -5.83964411 -0.14721792 0 0 Z " fill="#070203" transform="translate(113.01171875,14.49609375)"/>
<path d="M0 0 C1.9375 0.46484375 1.9375 0.46484375 4.375 2.83984375 C6.87229898 7.03530604 7.37292129 9.50104109 6.9375 14.46484375 C5.375 16.46484375 5.375 16.46484375 2.9375 17.46484375 C-1.36224141 17.46484375 -3.50479578 16.86828936 -7 14.33984375 C-9.60001779 10.71557652 -9.69876799 8.83918618 -9.0625 4.46484375 C-7.26380419 0.08052271 -4.58163568 -0.21055311 0 0 Z " fill="#030101" transform="translate(49.0625,3.53515625)"/>
<path d="M0 0 C2.72869407 0.03287583 5.2966618 0.56397771 8 1 C7.731875 1.515625 7.46375 2.03125 7.1875 2.5625 C5.67650593 5.66401415 4.34427274 8.82262806 3 12 C0.13275314 11.42655063 -0.8614515 11.1385485 -3 9 C-2.53846154 2.53846154 -2.53846154 2.53846154 0 0 Z " fill="#C53862" transform="translate(18,51)"/>
<path d="M0 0 C2.625 0.25 2.625 0.25 4.5 1.4375 C5.625 3.25 5.625 3.25 5.3125 5.9375 C5.085625 6.700625 4.85875 7.46375 4.625 8.25 C2.375 9 2.375 9 -0.375 9.25 C-2.75 7.5625 -2.75 7.5625 -4.375 5.25 C-4.07699404 1.7732638 -3.54983708 0.37366706 0 0 Z " fill="#C73863" transform="translate(118.375,114.75)"/>
<path d="M0 0 C-0.60830861 6.44807122 -0.60830861 6.44807122 -2.375 8.9375 C-4 10 -4 10 -7 10 C-7.22432841 6.70985003 -7.30380397 4.57722754 -5.75 1.625 C-4 0 -4 0 0 0 Z " fill="#CD3A66" transform="translate(112,19)"/>
<path d="M0 0 C2 0.75 2 0.75 4 3.75 C4 5.07 4 6.39 4 7.75 C-0.47400242 8.11275695 -0.47400242 8.11275695 -2.8125 6.5 C-4 4.75 -4 4.75 -4 0.75 C-2 -0.25 -2 -0.25 0 0 Z " fill="#C53862" transform="translate(48,8.25)"/>
</svg>
