<?xml version="1.0" encoding="UTF-8"?>
<svg version="1.1" xmlns="http://www.w3.org/2000/svg" width="128" height="128">
<path d="M0 0 C0.68359589 -0.0071553 1.36719177 -0.01431061 2.07150269 -0.02168274 C4.32122554 -0.03852999 6.56894388 -0.01919204 8.81860352 0.00219727 C10.38892277 0.00136809 11.95924194 -0.00109314 13.52955627 -0.00511169 C16.81733391 -0.00796706 20.10442933 0.00670318 23.39208984 0.03417969 C27.59662471 0.06823479 31.79993785 0.06225164 36.00453091 0.04351711 C39.24662876 0.03292321 42.48844475 0.04190691 45.73051643 0.05690193 C47.28018417 0.06206862 48.82988152 0.06162036 50.37954521 0.05535698 C52.55054342 0.04987654 54.71982293 0.07036691 56.890625 0.09765625 C58.12352768 0.10385483 59.35643036 0.11005341 60.62669373 0.11643982 C65.47429539 0.8538479 68.6140689 3.04261909 71.82250977 6.69360352 C73.74216099 9.82566604 74.16718216 12.47174963 74.19750977 16.06860352 C74.21168945 16.83043945 74.22586914 17.59227539 74.24047852 18.37719727 C73.98613643 20.86457666 73.25018173 22.47918457 72.01000977 24.63110352 C72.66227539 24.76645508 73.31454102 24.90180664 73.98657227 25.04125977 C80.65335665 26.68337332 84.24159952 28.86029078 88.01000977 34.63110352 C90.13552091 38.88212581 89.4432603 44.30427375 88.01000977 48.69360352 C87.68000977 49.33297852 87.35000977 49.97235352 87.01000977 50.63110352 C88.14438477 50.94047852 89.27875977 51.24985352 90.44750977 51.56860352 C94.01000977 52.63110352 94.01000977 52.63110352 95.01000977 53.63110352 C95.13455837 55.27340716 95.18569501 56.92162628 95.19750977 58.56860352 C95.21168945 59.46450195 95.22586914 60.36040039 95.24047852 61.28344727 C95.01000977 63.63110352 95.01000977 63.63110352 93.01000977 65.63110352 C91.69000977 65.63110352 90.37000977 65.63110352 89.01000977 65.63110352 C88.89178864 66.53193161 88.89178864 66.53193161 88.7711792 67.45095825 C87.94591959 73.71545585 87.09877748 79.97671889 86.23901367 86.23657227 C85.92124247 88.57142937 85.60901081 90.9070475 85.30249023 93.2434082 C84.86026898 96.60657956 84.3980285 99.96648736 83.93188477 103.32641602 C83.79941345 104.36726349 83.66694214 105.40811096 83.53045654 106.48049927 C82.54323278 113.40279627 80.93242755 117.71132787 75.88345337 122.7557373 C72.19370593 125.16386798 69.10697315 125.2083511 64.8425293 125.18041992 C64.03374329 125.19064178 63.22495728 125.20086365 62.3916626 125.21139526 C59.72507913 125.23913499 57.05953264 125.23727812 54.39282227 125.23266602 C52.53343321 125.24044344 50.67404769 125.24911351 48.81466675 125.25863647 C44.91921467 125.27354993 41.02412513 125.27298717 37.12866211 125.26245117 C32.14605939 125.25086845 27.16494524 125.28470851 22.18258858 125.33114052 C18.34255351 125.36066311 14.50287488 125.36235226 10.66274643 125.35612106 C8.82638477 125.35714531 6.9900026 125.36758026 5.15375137 125.3877449 C2.58028915 125.41253548 0.00969852 125.39886378 -2.5637207 125.37573242 C-3.69238052 125.39866364 -3.69238052 125.39866364 -4.84384155 125.42205811 C-10.03435107 125.31938302 -12.75035778 123.80053245 -16.57556629 120.32938862 C-21.31010181 114.64467776 -21.70267557 106.19175529 -22.59545898 99.12719727 C-22.72439041 98.16330582 -22.85332184 97.19941437 -22.98616028 96.20631409 C-23.39153732 93.16143576 -23.784709 90.11512954 -24.17749023 87.06860352 C-24.45207192 84.98972047 -24.72745491 82.91094309 -25.00366211 80.83227539 C-25.6750374 75.76639208 -26.33547988 70.6991922 -26.98999023 65.63110352 C-27.79436523 65.48672852 -28.59874023 65.34235352 -29.42749023 65.19360352 C-31.98999023 64.63110352 -31.98999023 64.63110352 -32.98999023 63.63110352 C-33.11453884 61.98879987 -33.16567548 60.34058075 -33.17749023 58.69360352 C-33.19166992 57.79770508 -33.20584961 56.90180664 -33.22045898 55.97875977 C-32.98999023 53.63110352 -32.98999023 53.63110352 -30.98999023 51.63110352 C-29.66999023 51.63110352 -28.34999023 51.63110352 -26.98999023 51.63110352 C-27.01061523 50.55860352 -27.03124023 49.48610352 -27.05249023 48.38110352 C-27.00344151 45.43818032 -26.70871896 43.4033429 -25.98999023 40.63110352 C-26.31999023 39.97110352 -26.64999023 39.31110352 -26.98999023 38.63110352 C-27.38068366 34.48975317 -27.42381251 32.3192354 -25.17749023 28.75610352 C-22.79957857 26.44613218 -21.26193484 25.69190393 -17.94702148 25.53344727 C-17.23932617 25.54504883 -16.53163086 25.55665039 -15.80249023 25.56860352 C-13.91530273 25.59954102 -13.91530273 25.59954102 -11.98999023 25.63110352 C-12.01061523 24.55860352 -12.03124023 23.48610352 -12.05249023 22.38110352 C-12.00344151 19.43818032 -11.70871896 17.4033429 -10.98999023 14.63110352 C-11.31999023 13.97110352 -11.64999023 13.31110352 -11.98999023 12.63110352 C-12.47238324 8.36996526 -12.57537775 6.3860734 -9.90342712 2.94007874 C-6.31298003 0.09455515 -4.5384554 0.00354264 0 0 Z " fill="#060603" transform="translate(32.989990234375,3.368896484375)"/>
<path d="M0 0 C34.98 0 69.96 0 106 0 C105.15196853 8.48031466 104.13331053 16.88919909 102.953125 25.32348633 C102.73371047 26.9042831 102.51856533 28.48567814 102.30761719 30.06762695 C101.99857574 32.38376346 101.67648174 34.6977626 101.3515625 37.01171875 C101.21544052 38.05884285 101.21544052 38.05884285 101.0765686 39.12712097 C100.24611544 44.86617797 99.01377683 49.94949631 94.86903381 54.16983032 C91.31246767 56.43857999 88.45407032 56.5714396 84.36743164 56.53344727 C83.61556076 56.54206284 82.86368988 56.55067841 82.08903503 56.55955505 C79.61238834 56.58219201 77.13687537 56.5754806 74.66015625 56.56640625 C72.93289352 56.57164313 71.20563366 56.57791985 69.4783783 56.58518982 C65.86118091 56.59558999 62.24437701 56.59103862 58.62719727 56.57641602 C53.99885087 56.55923446 49.37174664 56.58271688 44.74353886 56.61790562 C41.17719851 56.63990032 37.61115439 56.6384331 34.04476738 56.6301403 C32.3387764 56.6293218 30.63276346 56.63616596 28.92683601 56.65091133 C26.53777595 56.66839535 24.15093498 56.6537857 21.76196289 56.63110352 C20.7120668 56.64864182 20.7120668 56.64864182 19.64096069 56.66653442 C14.06172049 56.55913038 11.77129782 54.82489757 8 51 C5.77840789 46.24724967 5.24542302 40.99947886 4.4921875 35.83984375 C4.36184113 34.97235001 4.23149475 34.10485626 4.09719849 33.21107483 C3.82409341 31.38516088 3.55362327 29.55885108 3.28564453 27.73217773 C2.87567992 24.94212728 2.45605895 22.1536534 2.03515625 19.36523438 C1.7702591 17.5860229 1.50591726 15.80672864 1.2421875 14.02734375 C1.11721893 13.19702133 0.99225037 12.36669891 0.86349487 11.51121521 C0.74982574 10.73012894 0.63615662 9.94904266 0.51904297 9.14428711 C0.36820755 8.12219398 0.36820755 8.12219398 0.21432495 7.07945251 C-0.02772583 4.73099473 0 2.36089868 0 0 Z " fill="#01A0E9" transform="translate(11,68)"/>
<path d="M0 0 C0.66511093 -0.0065712 1.33022186 -0.0131424 2.01548767 -0.01991272 C4.22614647 -0.03969206 6.4367371 -0.05132017 8.64746094 -0.0612793 C9.40154991 -0.06535482 10.15563889 -0.06943035 10.93257904 -0.07362938 C14.92591582 -0.09451264 18.91921803 -0.10880296 22.91259766 -0.11816406 C27.03649015 -0.12921681 31.15984128 -0.16359646 35.28354263 -0.20333576 C38.45431514 -0.2294982 41.62495882 -0.23785566 44.79582977 -0.24144554 C46.31566767 -0.24631469 47.83549969 -0.25793816 49.35523224 -0.27648354 C51.48595288 -0.3008626 53.615276 -0.29991296 55.74609375 -0.29296875 C57.56358124 -0.30176811 57.56358124 -0.30176811 59.41778564 -0.31074524 C63.25327227 0.27130783 64.89281072 1.4848843 67.63183594 4.17700195 C69.24613517 7.40560042 69.2275425 10.68693849 68.63183594 14.17700195 C66.89581489 17.20208341 64.79603457 19.59490264 61.63183594 21.17700195 C59.51850706 21.27899286 57.40191029 21.31542964 55.28613281 21.32226562 C54.63556412 21.32562424 53.98499542 21.32898285 53.31471252 21.33244324 C51.15998435 21.34195772 49.00533382 21.34389646 46.85058594 21.3449707 C45.35607877 21.34818246 43.86157192 21.35154647 42.36706543 21.35505676 C39.23314688 21.36104894 36.09925591 21.36289653 32.96533203 21.36230469 C28.94335542 21.36220295 24.92155489 21.37586658 20.89962006 21.3930769 C17.813041 21.40417651 14.72650482 21.40622454 11.63990784 21.40569496 C10.15669649 21.40687772 8.67348413 21.411316 7.19029236 21.41902733 C5.11924772 21.42878826 3.04858948 21.42596516 0.97753906 21.41992188 C-0.79212219 21.4220594 -0.79212219 21.4220594 -2.59753418 21.42424011 C-5.36816406 21.17700195 -5.36816406 21.17700195 -7.36816406 19.17700195 C-7.61816406 16.67700195 -7.61816406 16.67700195 -7.36816406 14.17700195 C-5.36816406 12.17700195 -5.36816406 12.17700195 -2.81185913 11.93649292 C-1.19303329 11.94315475 -1.19303329 11.94315475 0.45849609 11.94995117 C2.2901683 11.95017776 2.2901683 11.95017776 4.15884399 11.95040894 C5.49619712 11.96062293 6.83354859 11.97105493 8.17089844 11.98168945 C9.53567295 11.98541915 10.90045013 11.98826633 12.26522827 11.99026489 C15.85904317 11.99790482 19.45269667 12.01755623 23.04644775 12.03967285 C26.7129091 12.06012364 30.37939651 12.06926496 34.04589844 12.0793457 C41.24128456 12.10080192 48.43653764 12.13494203 55.63183594 12.17700195 C55.63183594 10.85700195 55.63183594 9.53700195 55.63183594 8.17700195 C54.87206451 8.18144318 54.11229309 8.1858844 53.32949829 8.19046021 C46.17808277 8.23049289 39.02672139 8.26096384 31.87522316 8.2806263 C28.19834244 8.29107469 24.52155411 8.30525297 20.84472656 8.32788086 C17.29803939 8.34957186 13.75144122 8.36156262 10.20469284 8.36675644 C8.84986342 8.37045896 7.495039 8.37768885 6.14024734 8.38846207 C4.24637837 8.40292643 2.35242029 8.40381844 0.45849609 8.40405273 C-0.62072113 8.40849396 -1.69993835 8.41293518 -2.81185913 8.41751099 C-5.36816406 8.17700195 -5.36816406 8.17700195 -7.36816406 6.17700195 C-7.55566406 3.61450195 -7.55566406 3.61450195 -7.36816406 1.17700195 C-5.51684691 -0.6743152 -2.47752225 0.02018182 0 0 Z " fill="#FADA00" transform="translate(33.3681640625,8.822998046875)"/>
<path d="M0 0 C1.30185242 -0.00953201 2.60370483 -0.01906403 3.94500732 -0.02888489 C5.37382026 -0.02862339 6.80263321 -0.02768598 8.23144531 -0.02612305 C9.69395062 -0.03000971 11.1564548 -0.03434431 12.61895752 -0.03910828 C15.68904267 -0.04657905 18.75901288 -0.04627424 21.82910156 -0.04101562 C25.75438928 -0.03523688 29.67920271 -0.05210863 33.60441208 -0.0753603 C36.62769299 -0.09013311 39.65086084 -0.09096425 42.67417145 -0.08785057 C44.12058701 -0.08836257 45.5670091 -0.0935775 47.01338959 -0.10366249 C49.04274362 -0.11606916 51.07219333 -0.10727275 53.1015625 -0.09765625 C54.25468933 -0.09828568 55.40781616 -0.0989151 56.59588623 -0.0995636 C60.27739181 0.32913431 62.66215085 1.33876911 65.80957031 3.2746582 C68.48862761 7.29324415 68.50567725 10.55107542 67.80957031 15.2746582 C66.01563363 18.14495689 64.82693755 19.76597458 61.80957031 21.2746582 C59.62957982 21.37167724 57.44655214 21.40262774 55.2644043 21.40405273 C54.2568811 21.40668121 54.2568811 21.40668121 53.22900391 21.40936279 C51.00453116 21.41377111 48.78013764 21.41084724 46.55566406 21.4074707 C45.01392095 21.40814396 43.47217793 21.40911416 41.93043518 21.41036987 C38.69816071 21.4118454 35.46591385 21.40969665 32.23364258 21.4050293 C28.08158138 21.39932731 23.92958474 21.40261489 19.7775259 21.40860176 C16.59405527 21.41220722 13.41060007 21.41106894 10.22712898 21.40847397 C8.69564875 21.4078049 7.16416714 21.40863241 5.63268852 21.41095352 C3.49686826 21.41348033 1.36115412 21.40963933 -0.7746582 21.40405273 C-1.99218277 21.40325714 -3.20970734 21.40246155 -4.46412659 21.40164185 C-7.19042969 21.2746582 -7.19042969 21.2746582 -8.19042969 20.2746582 C-8.37792969 17.8371582 -8.37792969 17.8371582 -8.19042969 15.2746582 C-5.50461279 12.58884131 -4.1205009 13.00218995 -0.36376953 12.95581055 C0.85734528 12.93594086 2.07846008 12.91607117 3.33657837 12.89559937 C4.67392801 12.88372212 6.01127956 12.87205931 7.34863281 12.8605957 C8.71342144 12.84189071 10.07819842 12.8223178 11.44296265 12.8019104 C15.03663274 12.75051215 18.63034037 12.71092793 22.22418213 12.67376709 C25.89076071 12.63377541 29.55718216 12.5826611 33.22363281 12.5324707 C40.41883763 12.43562047 47.61411826 12.35124514 54.80957031 12.2746582 C54.80957031 11.6146582 54.80957031 10.9546582 54.80957031 10.2746582 C54.04979889 10.26657135 53.29002747 10.2584845 52.50723267 10.25015259 C45.35565598 10.17229093 38.20428581 10.08502634 31.05295753 9.98713112 C27.3761639 9.93713268 23.69939949 9.89080328 20.02246094 9.8527832 C16.47563328 9.81597474 12.9290481 9.76962753 9.38242722 9.7165947 C8.02765521 9.69802699 6.67283118 9.68292782 5.31798172 9.67131424 C3.42396175 9.65449311 1.53007443 9.62432204 -0.36376953 9.59350586 C-1.44298676 9.58018219 -2.52220398 9.56685852 -3.63412476 9.5531311 C-6.19042969 9.2746582 -6.19042969 9.2746582 -8.19042969 7.2746582 C-8.44042969 4.7746582 -8.44042969 4.7746582 -8.19042969 2.2746582 C-5.437179 -0.47859249 -3.85557061 0.01544781 0 0 Z " fill="#F8E438" transform="translate(19.1904296875,33.725341796875)"/>
<path d="M0 0 C39.6 0 79.2 0 120 0 C120 1.32 120 2.64 120 4 C80.4 4 40.8 4 0 4 C0 2.68 0 1.36 0 0 Z " fill="#3E50B4" transform="translate(4,60)"/>
<path d="M0 0 C3.52270847 -0.16272563 7.03783693 -0.28124709 10.5625 -0.375 C11.55314453 -0.42527344 12.54378906 -0.47554687 13.56445312 -0.52734375 C18.62952906 -0.62830872 22.12134743 -0.50430494 26.171875 2.73828125 C28.06714853 4.66861549 28.93173818 5.8029789 29.82421875 8.37890625 C29.50759117 13.43590103 28.86453026 16.36279505 25 20 C22.44276771 21.27861615 20.63262898 21.11336609 17.7734375 21.09765625 C16.7421875 21.09443359 15.7109375 21.09121094 14.6484375 21.08789062 C13.02808594 21.07532227 13.02808594 21.07532227 11.375 21.0625 C9.74304688 21.05573242 9.74304688 21.05573242 8.078125 21.04882812 C5.38536211 21.03701776 2.69270812 21.02054778 0 21 C0.99 18.36 1.98 15.72 3 13 C7.29 13 11.58 13 16 13 C16 11.68 16 10.36 16 9 C11.71 9 7.42 9 3 9 C2.01 6.03 1.02 3.06 0 0 Z " fill="#F99400" transform="translate(88,34)"/>
<path d="M0 0 C2.3125 1.4375 2.3125 1.4375 4 4 C4.79150471 8.35727339 4.77259286 11.78168049 2.375 15.5625 C-0.70711612 17.42799134 -2.45822952 17.60285455 -6 17 C-8.34765848 15.2001285 -8.88599016 13.76710325 -9.31640625 10.87109375 C-9.51371334 7.00769359 -9.47391734 4.71965225 -7.3125 1.4375 C-4.51072818 -0.30414195 -3.23724025 -0.64744805 0 0 Z " fill="#010B11" transform="translate(41,98)"/>
<path d="M0 0 C2.3125 1.4375 2.3125 1.4375 4 4 C4.79181968 8.35900734 4.72294882 11.78544598 2.4375 15.625 C-1.06266793 17.5994537 -3.20236913 17.05489746 -7 16 C-9.67770289 11.98344566 -9.69000365 8.71928419 -9 4 C-6.5516034 0.28206442 -4.41370093 -0.88274019 0 0 Z " fill="#010A10" transform="translate(92,98)"/>
<path d="M0 0 C2.3125 1.4375 2.3125 1.4375 4 4 C4.79181968 8.35900734 4.72294882 11.78544598 2.4375 15.625 C-1.06266793 17.5994537 -3.20236913 17.05489746 -7 16 C-9.67770289 11.98344566 -9.69000365 8.71928419 -9 4 C-6.5516034 0.28206442 -4.41370093 -0.88274019 0 0 Z " fill="#00080C" transform="translate(75,98)"/>
<path d="M0 0 C2.3125 1.4375 2.3125 1.4375 4 4 C4.79181968 8.35900734 4.72294882 11.78544598 2.4375 15.625 C-1.06266793 17.5994537 -3.20236913 17.05489746 -7 16 C-9.67770289 11.98344566 -9.69000365 8.71928419 -9 4 C-6.5516034 0.28206442 -4.41370093 -0.88274019 0 0 Z " fill="#00080C" transform="translate(58,98)"/>
<path d="M0 0 C1.66015625 1.1796875 1.66015625 1.1796875 3 3 C3.43359375 5.59375 3.43359375 5.59375 3.4375 8.5 C3.45683594 9.4590625 3.47617187 10.418125 3.49609375 11.40625 C3 14 3 14 1.1328125 15.8203125 C-1.50955903 17.28184401 -3.02283372 17.45802558 -6 17 C-7.62890625 15.8203125 -7.62890625 15.8203125 -9 14 C-9.3984375 11.40625 -9.3984375 11.40625 -9.375 8.5 C-9.38273437 7.5409375 -9.39046875 6.581875 -9.3984375 5.59375 C-9 3 -9 3 -7.6640625 1.1796875 C-5.07427387 -0.65626595 -3.07812588 -0.38476574 0 0 Z " fill="#01060B" transform="translate(50,77)"/>
<path d="M0 0 C1.6640625 1.1796875 1.6640625 1.1796875 3 3 C3.3984375 5.59375 3.3984375 5.59375 3.375 8.5 C3.38273437 9.4590625 3.39046875 10.418125 3.3984375 11.40625 C3 14 3 14 1.69921875 15.8515625 C0 17 0 17 -3.5625 16.875 C-7 16 -7 16 -9 13 C-9.30078125 10.625 -9.30078125 10.625 -9.3125 8 C-9.32925781 7.13375 -9.34601563 6.2675 -9.36328125 5.375 C-9 3 -9 3 -7.66796875 1.2109375 C-5.08254851 -0.66606548 -3.09627067 -0.38703383 0 0 Z " fill="#01060A" transform="translate(101,77)"/>
<path d="M0 0 C1.66015625 1.1796875 1.66015625 1.1796875 3 3 C3.43359375 5.59375 3.43359375 5.59375 3.4375 8.5 C3.45683594 9.4590625 3.47617188 10.418125 3.49609375 11.40625 C3 14 3 14 1.16796875 15.85546875 C-1.88829431 17.46895538 -3.73953756 16.92143504 -7 16 C-9.60186108 13.39813892 -9.29810177 12.17645645 -9.3125 8.5625 C-9.32925781 7.59441406 -9.34601563 6.62632813 -9.36328125 5.62890625 C-9 3 -9 3 -7.66796875 1.17578125 C-5.07411522 -0.65267288 -3.0780753 -0.38475941 0 0 Z " fill="#01060A" transform="translate(84,77)"/>
<path d="M0 0 C1.66015625 1.1796875 1.66015625 1.1796875 3 3 C3.43359375 5.59375 3.43359375 5.59375 3.4375 8.5 C3.45683594 9.4590625 3.47617188 10.418125 3.49609375 11.40625 C3 14 3 14 1.16796875 15.85546875 C-1.88829431 17.46895538 -3.73953756 16.92143504 -7 16 C-9.60186108 13.39813892 -9.29810177 12.17645645 -9.3125 8.5625 C-9.32925781 7.59441406 -9.34601562 6.62632813 -9.36328125 5.62890625 C-9 3 -9 3 -7.66796875 1.17578125 C-5.07411522 -0.65267288 -3.0780753 -0.38475941 0 0 Z " fill="#01060A" transform="translate(67,77)"/>
<path d="M0 0 C2.25803439 1.65234987 2.91953458 2.56577668 3.43359375 5.33984375 C3.44407401 12.3092182 3.44407401 12.3092182 1.3125 15.625 C-1.45187769 17.26868403 -2.83888371 17.56737985 -6 17 C-7.62890625 15.81640625 -7.62890625 15.81640625 -9 14 C-9.3984375 11.40625 -9.3984375 11.40625 -9.375 8.5 C-9.38273437 7.5409375 -9.39046875 6.581875 -9.3984375 5.59375 C-9 3 -9 3 -7.6640625 1.1796875 C-5.07427387 -0.65626595 -3.07812588 -0.38476574 0 0 Z " fill="#01060A" transform="translate(33,77)"/>
<path d="M0 0 C3.26460973 1.80412643 4.88929795 2.83394693 7 6 C7.76579737 12.67337705 7.76579737 12.67337705 5.94921875 15.8203125 C4.17251621 17.99009082 2.52491118 19.73754441 0 21 C-2.12417 21.09175034 -4.25129455 21.11750694 -6.37744141 21.11352539 C-7.35811333 21.11374443 -7.35811333 21.11374443 -8.3585968 21.1139679 C-10.52295227 21.11327036 -12.68722204 21.1054854 -14.8515625 21.09765625 C-16.35086012 21.09579151 -17.85015834 21.09436787 -19.34945679 21.09336853 C-23.29831622 21.08954779 -27.24713896 21.07972128 -31.19598389 21.06866455 C-35.22440087 21.05844091 -39.25282378 21.05386887 -43.28125 21.04882812 C-51.18751685 21.03809862 -59.09375386 21.0210275 -67 21 C-67 20.67 -67 20.34 -67 20 C-66.17980881 19.99635437 -65.35961761 19.99270874 -64.51457214 19.98895264 C-56.78926376 19.95110364 -49.06443927 19.89428711 -41.33944225 19.81609726 C-37.36779807 19.77656845 -33.39637738 19.74440685 -29.42456055 19.72900391 C-25.59229266 19.71387236 -21.76063899 19.67949074 -17.92864418 19.63169098 C-16.46585742 19.6168407 -15.00298298 19.60895689 -13.54012108 19.60811615 C-11.49246936 19.60575543 -9.44652758 19.57875436 -7.39916992 19.54589844 C-6.23334885 19.53701599 -5.06752777 19.52813354 -3.86637878 19.51898193 C-0.90321837 19.26603892 -0.90321837 19.26603892 0.87724304 17.10015869 C3.34486279 12.48438408 2.36340794 7.29464077 1 2.4375 C0.505 1.2309375 0.505 1.2309375 0 0 Z " fill="#E8BC04" transform="translate(95,9)"/>
<path d="M0 0 C3.52019346 -0.1756269 7.03924935 -0.28128466 10.5625 -0.375 C11.55314453 -0.42527344 12.54378906 -0.47554687 13.56445312 -0.52734375 C18.62952906 -0.62830872 22.12134743 -0.50430494 26.171875 2.73828125 C28.06714853 4.66861549 28.93173818 5.8029789 29.82421875 8.37890625 C29.50885507 13.4157147 28.90942684 16.42566689 25 20 C24.01 20.33 23.02 20.66 22 21 C22.33 20.175 22.66 19.35 23 18.5 C24.42576812 13.5098116 24.7281586 9.3314436 23.1484375 4.2734375 C20.54576161 1.51933319 19.78889399 1.63700465 16.11328125 1.51171875 C14.17908541 1.54495236 12.24520331 1.60457874 10.3125 1.6875 C8.83040039 1.72133789 8.83040039 1.72133789 7.31835938 1.75585938 C4.87738441 1.81482012 2.43945132 1.89704952 0 2 C0 1.34 0 0.68 0 0 Z " fill="#E47800" transform="translate(88,34)"/>
<path d="M0 0 C2.55390984 0.36484426 4.0891745 1.05944967 6.25 2.5 C8.50604056 5.72291508 8.56649662 7.94255755 8.39453125 11.80859375 C7.80788184 15.06711174 6.41062113 16.79600354 4 19 C3.01 19.33 2.02 19.66 1 20 C1.33 19.195625 1.66 18.39125 2 17.5625 C3.54441641 12.06051654 4.05523104 7.15443003 1.5 1.9375 C1.005 1.298125 0.51 0.65875 0 0 Z " fill="#F4D032" transform="translate(79,35)"/>
<path d="M0 0 C1.98 0 3.96 0 6 0 C6 1.32 6 2.64 6 4 C5 5 5 5 2.4375 5.0625 C1.2309375 5.0315625 1.2309375 5.0315625 0 5 C0 6.98 0 8.96 0 11 C-1.65 11 -3.3 11 -5 11 C-5 9.02 -5 7.04 -5 5 C-3.68 4.67 -2.36 4.34 -1 4 C-0.67 2.68 -0.34 1.36 0 0 Z " fill="#000000" transform="translate(11,17)"/>
<path d="M0 0 C1.4540625 0.0309375 1.4540625 0.0309375 2.9375 0.0625 C3.2675 1.3825 3.5975 2.7025 3.9375 4.0625 C5.2575 4.3925 6.5775 4.7225 7.9375 5.0625 C7.9375 6.7125 7.9375 8.3625 7.9375 10.0625 C6.2875 10.3925 4.6375 10.7225 2.9375 11.0625 C2.9375 9.0825 2.9375 7.1025 2.9375 5.0625 C1.2875 5.0625 -0.3625 5.0625 -2.0625 5.0625 C-2.7225 3.7425 -3.3825 2.4225 -4.0625 1.0625 C-3.0625 0.0625 -3.0625 0.0625 0 0 Z " fill="#000000" transform="translate(114.0625,16.9375)"/>
<path d="M0 0 C1.65 0 3.3 0 5 0 C5 2.31 5 4.62 5 7 C3.0625 7.5625 3.0625 7.5625 1 8 C0 7 0 7 -0.0625 3.4375 C-0.041875 2.303125 -0.02125 1.16875 0 0 Z " fill="#334294" transform="translate(70,103)"/>
<path d="M0 0 C1.65 0 3.3 0 5 0 C5 2.31 5 4.62 5 7 C3.0625 7.5625 3.0625 7.5625 1 8 C0 7 0 7 -0.0625 3.4375 C-0.041875 2.303125 -0.02125 1.16875 0 0 Z " fill="#334294" transform="translate(53,103)"/>
<path d="M0 0 C2.0625 0.4375 2.0625 0.4375 4 1 C4 2.98 4 4.96 4 7 C3.01 7.33 2.02 7.66 1 8 C0.34 7.67 -0.32 7.34 -1 7 C-1.04254356 5.00045254 -1.04080783 2.99958364 -1 1 C-0.67 0.67 -0.34 0.34 0 0 Z " fill="#000000" transform="translate(118,10)"/>
<path d="M0 0 C2.0625 0.4375 2.0625 0.4375 4 1 C4 2.98 4 4.96 4 7 C3.01 7.33 2.02 7.66 1 8 C0.34 7.67 -0.32 7.34 -1 7 C-1.04254356 5.00045254 -1.04080783 2.99958364 -1 1 C-0.67 0.67 -0.34 0.34 0 0 Z " fill="#000000" transform="translate(7,10)"/>
<path d="M0 0 C1.4540625 0.0309375 1.4540625 0.0309375 2.9375 0.0625 C2.6075 1.7125 2.2775 3.3625 1.9375 5.0625 C0.2875 5.0625 -1.3625 5.0625 -3.0625 5.0625 C-3.625 3.125 -3.625 3.125 -4.0625 1.0625 C-3.0625 0.0625 -3.0625 0.0625 0 0 Z " fill="#000000" transform="translate(125.0625,16.9375)"/>
<path d="M0 0 C1.98 0 3.96 0 6 0 C6.5625 1.9375 6.5625 1.9375 7 4 C6 5 6 5 3.4375 5.0625 C2.2309375 5.0315625 2.2309375 5.0315625 1 5 C0.67 3.35 0.34 1.7 0 0 Z " fill="#000000" transform="translate(0,17)"/>
<path d="M0 0 C1.32 0 2.64 0 4 0 C4 2.31 4 4.62 4 7 C2.68 7.33 1.36 7.66 0 8 C0 5.36 0 2.72 0 0 Z " fill="#3848A2" transform="translate(88,103)"/>
<path d="M0 0 C1.32 0 2.64 0 4 0 C4 2.64 4 5.28 4 8 C2.68 7.67 1.36 7.34 0 7 C0 4.69 0 2.38 0 0 Z " fill="#3848A2" transform="translate(36,103)"/>
<path d="M0 0 C0.99 0.33 1.98 0.66 3 1 C3 3.31 3 5.62 3 8 C1.68 8 0.36 8 -1 8 C-1.04241723 5.66705225 -1.04092937 3.33297433 -1 1 C-0.67 0.67 -0.34 0.34 0 0 Z " fill="#3D4EAF" transform="translate(97,81)"/>
<path d="M0 0 C0.99 0.33 1.98 0.66 3 1 C3 3.31 3 5.62 3 8 C1.68 8 0.36 8 -1 8 C-1.04241723 5.66705225 -1.04092937 3.33297433 -1 1 C-0.67 0.67 -0.34 0.34 0 0 Z " fill="#3D4EB0" transform="translate(80,81)"/>
<path d="M0 0 C0.99 0.33 1.98 0.66 3 1 C3 3.31 3 5.62 3 8 C1.68 8 0.36 8 -1 8 C-1.04241723 5.66705225 -1.04092937 3.33297433 -1 1 C-0.67 0.67 -0.34 0.34 0 0 Z " fill="#3D4EB0" transform="translate(63,81)"/>
<path d="M0 0 C0.99 0.33 1.98 0.66 3 1 C3 3.31 3 5.62 3 8 C1.68 8 0.36 8 -1 8 C-1.04241723 5.66705225 -1.04092937 3.33297433 -1 1 C-0.67 0.67 -0.34 0.34 0 0 Z " fill="#3D4EB0" transform="translate(46,81)"/>
<path d="M0 0 C0.99 0.33 1.98 0.66 3 1 C3 3.31 3 5.62 3 8 C1.68 8 0.36 8 -1 8 C-1.04241723 5.66705225 -1.04092937 3.33297433 -1 1 C-0.67 0.67 -0.34 0.34 0 0 Z " fill="#3D4EAF" transform="translate(29,81)"/>
<path d="M0 0 C1.65 0 3.3 0 5 0 C5 1.32 5 2.64 5 4 C3.35 4 1.7 4 0 4 C0 2.68 0 1.36 0 0 Z " fill="#27348E" transform="translate(119,60)"/>
</svg>
