<?xml version="1.0" encoding="UTF-8"?>
<svg version="1.1" xmlns="http://www.w3.org/2000/svg" width="128" height="128">
<path d="M0 0 C0.99 0.66 1.98 1.32 3 2 C5.63434254 1.67873872 7.62710097 1.18644952 10 0 C14.88574542 -0.61511183 19.49054579 -0.96611852 23.5625 2.125 C26.36374647 5.4290343 26.66974737 6.74674646 27 11 C26.60723264 13.72465188 26.15393609 16.32217874 25.5625 19 C23.98350217 25.94154019 23.98350217 25.94154019 24 33 C25.63478776 35.2092934 25.63478776 35.2092934 27.875 37 C31.36406725 40.19525106 32.68835538 42.40924382 34 47 C34.62559814 47.31090576 35.25119629 47.62181152 35.89575195 47.94213867 C38.36543694 49.18371485 39.04293675 50.18472986 40.41796875 52.55078125 C40.85971436 53.2984375 41.30145996 54.04609375 41.7565918 54.81640625 C42.2287915 55.64011719 42.70099121 56.46382812 43.1875 57.3125 C43.68999268 58.17101563 44.19248535 59.02953125 44.71020508 59.9140625 C45.83946482 61.84482493 46.96443705 63.77809912 48.0859375 65.71337891 C50.21372571 69.36698668 52.37082609 73.00236208 54.53125 76.63671875 C55.69826831 78.60576582 56.86437793 80.57534683 58.02993774 82.54525757 C58.79982142 83.84533822 59.5709547 85.14467973 60.34335327 86.44326782 C61.43572952 88.28219297 62.52138758 90.12492576 63.60546875 91.96875 C64.23606201 93.03544922 64.86665527 94.10214844 65.51635742 95.20117188 C67.81628609 99.53988872 67.81628609 99.53988872 68 102 C66.37873325 104.03697617 64.71140469 106.03814584 63 108 C63 108.99 63 109.98 63 111 C64.485 111.99 64.485 111.99 66 113 C65.80611207 116.48998268 65.25892443 117.75507149 62.6875 120.1875 C56.30849488 123.94165134 48.52861796 124.36778549 41.375 123.3125 C37.08166651 122.7628556 35.0176414 123.22307493 31.3125 125.4375 C23.79195351 129.78832898 14.52472764 128.6975428 6.19921875 127.4140625 C2.98737334 126.76233069 2.98737334 126.76233069 0 128 C-8.98175167 128.71364656 -15.63779841 128.77664818 -23.51171875 124.0390625 C-27.63194419 122.3185288 -31.47654508 123.18712979 -35.81640625 123.71875 C-41.99842272 124.26489133 -47.0755213 122.97912074 -52.5625 120.1875 C-55 118 -55 118 -56 115.625 C-56 113 -56 113 -54.8125 110 C-54.544375 109.01 -54.27625 108.02 -54 107 C-54.99 105.7625 -54.99 105.7625 -56 104.5 C-56.99 103.2625 -56.99 103.2625 -58 102 C-56.92243009 97.45177876 -54.83749835 93.70474788 -52.47265625 89.703125 C-51.95533684 88.82279602 -51.95533684 88.82279602 -51.42756653 87.92468262 C-50.31170905 86.02960692 -49.18754397 84.13963406 -48.0625 82.25 C-47.28830297 80.94189227 -46.51437874 79.63362305 -45.74072266 78.32519531 C-43.84382122 75.12169216 -41.93887241 71.92307121 -40.0302124 68.7265625 C-39.09705845 67.16266303 -38.16677033 65.59705444 -37.23681641 64.03125 C-24.96906916 43.40209479 -24.96906916 43.40209479 -17 36.5625 C-14.99685547 34.59968724 -14.08383751 33.63624631 -13.71484375 30.8359375 C-13.96286835 28.16423389 -14.44641282 25.62599045 -15 23 C-15.41458875 20.56561991 -15.80970358 18.12786066 -16.1875 15.6875 C-16.48720703 13.96080078 -16.48720703 13.96080078 -16.79296875 12.19921875 C-17.08974022 7.61325966 -15.96899735 5.12040319 -13 1.6875 C-8.76556158 -0.69437161 -4.76821439 -0.69502786 0 0 Z " fill="#0A090A" transform="translate(59,0)"/>
<path d="M0 0 C2.4140625 1.5859375 2.4140625 1.5859375 4 3 C6.65245602 2.33903214 6.65245602 2.33903214 9 1 C9.66 0.67 10.32 0.34 11 0 C11.51949219 0.48210938 12.03898437 0.96421875 12.57421875 1.4609375 C16.77537461 5.42987676 16.77537461 5.42987676 21.875 7.9375 C22.57625 8.288125 23.2775 8.63875 24 9 C24.45467989 10.92767512 24.90740976 12.85584265 25.34765625 14.78686523 C26.42913219 18.4558695 28.45679187 21.40153951 30.5625 24.5625 C31.45516726 25.95395251 32.34707526 27.34589236 33.23828125 28.73828125 C34.15828822 30.15922076 35.07886338 31.57979254 36 33 C37.7729349 35.73622744 39.52043747 38.48618849 41.25 41.25 C41.65677979 41.8694751 42.06355957 42.4889502 42.48266602 43.12719727 C45.11194025 47.35970178 45.11194025 47.35970178 44.609375 50.234375 C41.37516134 53.78258999 38.07633371 54.91357063 33.3515625 55.29296875 C32.12179688 55.25816406 30.89203125 55.22335938 29.625 55.1875 C28.37976563 55.16042969 27.13453125 55.13335937 25.8515625 55.10546875 C24.91054687 55.07066406 23.96953125 55.03585938 23 55 C20.34351022 49.32087668 18.76348644 43.65138266 17.3125 37.5625 C16.97508789 36.17901367 16.97508789 36.17901367 16.63085938 34.76757812 C16.08181061 32.51297361 15.53833701 30.25718159 15 28 C14.34 28 13.68 28 13 28 C14.04785827 35.64320151 15.38681017 43.01933222 17.51171875 50.44140625 C18.01714257 53.08982704 18.04476204 54.52702603 17 57 C11.9996457 59.56428426 6.49486232 59.49543841 1 59 C-0.03125 58.608125 -1.0625 58.21625 -2.125 57.8125 C-5.8689545 56.7544259 -7.84374841 57.65690412 -11.36328125 59.078125 C-13.18469957 59.90286567 -13.18469957 59.90286567 -14 62 C-12.99646484 61.89171875 -12.99646484 61.89171875 -11.97265625 61.78125 C-4.88467682 61.09623722 2.09836487 60.91771965 9.21069336 61.03710938 C12.62661821 61.07837505 15.73646804 61.08784399 19 60 C20.76615118 64.70973649 21.48594831 69.03083364 22 74 C17.17523453 76.99917853 13.8121391 78.15204402 8.125 78.1875 C7.09632812 78.20167969 6.06765625 78.21585937 5.0078125 78.23046875 C1.93304625 77.99486978 -0.1857906 77.19507522 -3 76 C-5.86867529 76.34150896 -8.25568776 77.08522925 -11 78 C-17.42819004 78.48323806 -24.67846755 78.71873897 -29.90625 74.43969727 C-32.4049472 72.72155158 -33.62996679 72.66972499 -36.625 72.77734375 C-37.49640625 72.79603516 -38.3678125 72.81472656 -39.265625 72.83398438 C-40.16796875 72.86814453 -41.0703125 72.90230469 -42 72.9375 C-43.79137698 72.99763908 -45.58308481 73.04875694 -47.375 73.08984375 C-48.56222656 73.13419556 -48.56222656 73.13419556 -49.7734375 73.17944336 C-52.27208727 72.97807191 -53.8483621 72.25051672 -56 71 C-54.23570801 66.02790438 -51.6060834 61.56561939 -49 57 C-48.50242187 57.16757813 -48.00484375 57.33515625 -47.4921875 57.5078125 C-43.38202533 58.31953732 -39.18961276 57.96310036 -35.01953125 57.78515625 C-30.16597895 57.68461185 -27.20042596 58.6609873 -23 61 C-22.01 61 -21.02 61 -20 61 C-20 60.34 -20 59.68 -20 59 C-27.83687063 53.66425829 -35.89555825 54.62754556 -45 55 C-45.495 53.515 -45.495 53.515 -46 52 C-44.6015625 49.22265625 -44.6015625 49.22265625 -42.625 46.0625 C-39.60640782 41.31736651 -39.60640782 41.31736651 -38 36 C-42.20059624 37.40019875 -43.19051525 40.36825877 -45.1875 44.0625 C-45.55552734 44.72572266 -45.92355469 45.38894531 -46.30273438 46.07226562 C-47.21012062 47.71027457 -48.10615573 49.35456221 -49 51 C-50.32 50.67 -51.64 50.34 -53 50 C-50.84454074 44.17852063 -47.61102017 39.0065595 -44.45263672 33.69140625 C-43.39273138 31.90488706 -42.34253059 30.1129226 -41.29296875 28.3203125 C-22.18002097 -4.08564882 -22.18002097 -4.08564882 0 0 Z " fill="#E6EAED" transform="translate(68,36)"/>
<path d="M0 0 C2.99650785 1.62667569 5.16424806 3.16825411 7.5625 5.625 C10.00194421 8.00189436 10.82591016 8.39605056 14 9 C14.23589844 10.16402344 14.47179687 11.32804687 14.71484375 12.52734375 C15.87354695 17.14086804 17.94507168 20.63337639 20.5625 24.5625 C21.45516726 25.95395251 22.34707526 27.34589236 23.23828125 28.73828125 C24.15828822 30.15922076 25.07886338 31.57979254 26 33 C27.7729349 35.73622744 29.52043747 38.48618849 31.25 41.25 C31.65677979 41.8694751 32.06355957 42.4889502 32.48266602 43.12719727 C35.11194025 47.35970178 35.11194025 47.35970178 34.609375 50.234375 C31.37516134 53.78258999 28.07633371 54.91357063 23.3515625 55.29296875 C22.12179688 55.25816406 20.89203125 55.22335938 19.625 55.1875 C18.37976563 55.16042969 17.13453125 55.13335937 15.8515625 55.10546875 C14.91054687 55.07066406 13.96953125 55.03585938 13 55 C10.34351022 49.32087668 8.76348644 43.65138266 7.3125 37.5625 C7.08755859 36.64017578 6.86261719 35.71785156 6.63085938 34.76757812 C6.08181061 32.51297361 5.53833701 30.25718159 5 28 C4.34 28 3.68 28 3 28 C4.04785827 35.64320151 5.38681017 43.01933222 7.51171875 50.44140625 C8.01714257 53.08982704 8.04476204 54.52702603 7 57 C2.14191132 59.49132753 -3.64341619 59.78948066 -9 59 C-11.61857605 57.81413269 -11.61857605 57.81413269 -14 56 C-14.60127258 53.55122375 -14.60127258 53.55122375 -14.56762695 50.6105957 C-14.5672493 49.50968094 -14.56687164 48.40876617 -14.56648254 47.27449036 C-14.54067612 46.08691635 -14.51486969 44.89934235 -14.48828125 43.67578125 C-14.48120651 42.45924362 -14.47413177 41.24270599 -14.46684265 39.98930359 C-14.43881132 36.09641523 -14.37605127 32.20495505 -14.3125 28.3125 C-14.28742868 25.67645303 -14.26461349 23.04038357 -14.24414062 20.40429688 C-14.18895565 13.93570905 -14.10524026 7.46795653 -14 1 C-10.96732907 0.9038051 -9.23248883 0.89226128 -6.4375 2.1875 C-5.633125 2.455625 -4.82875 2.72375 -4 3 C-1.67488528 1.73647948 -1.67488528 1.73647948 0 0 Z " fill="#EDF0F2" transform="translate(78,36)"/>
<path d="M0 0 C1.03125 0.70125 2.0625 1.4025 3.125 2.125 C4.07375 2.74375 5.0225 3.3625 6 4 C9.27396279 3.2386133 11.19064465 1.87290357 14 0 C17.23232558 -0.34386442 19.37065456 -0.26498755 22.375 1 C25.00996399 4.2430326 24.34448312 6.92361647 24 11 C23.34 14.3 22.68 17.6 22 21 C10.12 21.99 10.12 21.99 -2 23 C-2 23.66 -2 24.32 -2 25 C0.97 25.33 3.94 25.66 7 26 C7 26.66 7 27.32 7 28 C2.38 28 -2.24 28 -7 28 C-7.50881977 25.3347536 -8.00720141 22.66821581 -8.5 20 C-8.64308594 19.25621094 -8.78617188 18.51242188 -8.93359375 17.74609375 C-11.21032785 5.27826418 -11.21032785 5.27826418 -8.9375 1 C-5.79928609 -0.61972331 -3.47482259 -0.41226709 0 0 Z " fill="#E5E9ED" transform="translate(57,4)"/>
<path d="M0 0 C0.79535156 0.33257812 1.59070313 0.66515625 2.41015625 1.0078125 C7.61684264 2.4468749 12.56656891 2.02384639 17.92382812 1.74609375 C23.89991933 1.58393325 27.03045972 2.67423074 32 6 C38.04702547 7.96119745 45.26339851 7.6507779 51.3125 5.875 C55.49568856 4.88237899 56.21174882 5.42870426 60 7 C67.72972457 7.92708535 74.67494943 6.38028723 82 4 C82 5.98 82 7.96 82 10 C74.86448259 14.1301186 68.1712632 14.94073445 60 14 C58.65396198 13.35937228 57.31761166 12.69722431 56 12 C53.02475039 12.29752496 50.67758805 12.66120597 48 14 C39.86170333 14.78550015 33.2612418 13.79045956 26 10 C25.67 9.67 25.34 9.34 25 9 C23.5073642 8.94944026 22.01239152 8.96438279 20.51953125 9.0078125 C19.1437793 9.03294922 19.1437793 9.03294922 17.74023438 9.05859375 C15.80773794 9.10242622 13.87540584 9.154344 11.94335938 9.21484375 C6.48624996 9.29862352 2.74668398 9.04745089 -2 6 C-1.125 1.125 -1.125 1.125 0 0 Z " fill="#C0CAD4" transform="translate(10,110)"/>
<path d="M0 0 C0.66 0 1.32 0 2 0 C3.98 3.96 5.96 7.92 8 12 C4.36788415 16.54014482 2.48871769 18.82318951 -3 20 C-17.38630531 21.0498558 -17.38630531 21.0498558 -21 18 C-21.828125 14.9609375 -21.828125 14.9609375 -22.25 11.375 C-22.39953125 10.18648437 -22.5490625 8.99796875 -22.703125 7.7734375 C-22.80109375 6.85820313 -22.8990625 5.94296875 -23 5 C-22.16597656 5.04640625 -21.33195312 5.0928125 -20.47265625 5.140625 C-13.03768376 5.37908918 -7.43543903 4.88937942 -1 1 C-0.67 0.67 -0.34 0.34 0 0 Z " fill="#E4E8EC" transform="translate(114,89)"/>
<path d="M0 0 C0.99 0.33 1.98 0.66 3 1 C4.52784114 4.77283221 4.97454746 8.82918312 5.0625 12.875 C3.71215203 15.57569594 2.10320339 16.4814089 -0.703125 17.49609375 C-8.39636027 19.18389536 -13.96672508 18.51663746 -21 15 C-21 10.38 -21 5.76 -21 1 C-19.65164062 1.01160156 -18.30328125 1.02320312 -16.9140625 1.03515625 C-15.15104305 1.04453401 -13.3880221 1.05363423 -11.625 1.0625 C-10.73554687 1.07087891 -9.84609375 1.07925781 -8.9296875 1.08789062 C-8.07890625 1.09111328 -7.228125 1.09433594 -6.3515625 1.09765625 C-5.17327881 1.10551147 -5.17327881 1.10551147 -3.97119141 1.11352539 C-1.92227332 1.12573953 -1.92227332 1.12573953 0 0 Z " fill="#F1F3F4" transform="translate(85,96)"/>
<path d="M0 0 C0.75 1.75 0.75 1.75 1 4 C-1.29093802 6.88488491 -3.57811859 8.69130032 -7 10 C-9.7340296 10.21725519 -12.33169498 10.32478985 -15.0625 10.3125 C-16.14241211 10.33666992 -16.14241211 10.33666992 -17.24414062 10.36132812 C-20.22416078 10.36409509 -22.44120619 10.35539724 -24.99609375 8.73046875 C-26 7 -26 7 -26 3 C-24.92621094 3.03480469 -23.85242188 3.06960937 -22.74609375 3.10546875 C-21.30991161 3.13362918 -19.87371238 3.16092691 -18.4375 3.1875 C-17.73302734 3.21263672 -17.02855469 3.23777344 -16.30273438 3.26367188 C-10.28797438 3.34682524 -5.6580984 0 0 0 Z " fill="#BFC8D2" transform="translate(121,109)"/>
<path d="M0 0 C1.32 0.66 2.64 1.32 4 2 C2.02 5.96 0.04 9.92 -2 14 C-2.99 14 -3.98 14 -5 14 C-6 11 -6 11 -4.78515625 8.30078125 C-4.21667969 7.31464844 -3.64820313 6.32851562 -3.0625 5.3125 C-2.49660156 4.31863281 -1.93070313 3.32476562 -1.34765625 2.30078125 C-0.90292969 1.54152344 -0.45820313 0.78226562 0 0 Z " fill="#D8DBDF" transform="translate(12,89)"/>
<path d="M0 0 C2.97 0 5.94 0 9 0 C8.67 1.65 8.34 3.3 8 5 C5.6875 5.6875 5.6875 5.6875 3 6 C1.1875 4.75 1.1875 4.75 0 3 C0 2.01 0 1.02 0 0 Z " fill="#CF5C66" transform="translate(68,29)"/>
<path d="M0 0 C0.639375 0.144375 1.27875 0.28875 1.9375 0.4375 C5.93844788 1.17236798 9.95504896 1.58581111 14 2 C14 2.66 14 3.32 14 4 C9.38 4 4.76 4 0 4 C0 2.68 0 1.36 0 0 Z " fill="#DD9298" transform="translate(50,28)"/>
<path d="M0 0 C0.99 0 1.98 0 3 0 C2.46930939 3.82097239 1.50298434 6.06171403 -1 9 C-1.99 8.67 -2.98 8.34 -4 8 C-2.25 2.25 -2.25 2.25 0 0 Z " fill="#151616" transform="translate(35,59)"/>
</svg>
